<svg width="23" height="22" viewBox="0 0 23 22" fill="none" xmlns="http://www.w3.org/2000/svg">
<path d="M22.7929 14.0908C22.0663 11.3608 20.1913 9.80176 17.3451 9.24246C17.3451 9.15652 17.3451 9.05849 17.3451 8.95979C17.3451 7.04152 17.3512 5.12325 17.343 3.20565C17.3355 1.43308 15.8842 0.00696976 14.0813 0.00428405C10.4727 -0.00108737 6.8634 -0.0017588 3.25481 0.00428405C1.46627 0.00764119 0.0067947 1.43644 0.0040526 3.19021C-0.00211711 7.66326 -0.00211711 12.1356 0.0102223 16.6087C0.0109078 16.9531 0.0828878 17.3117 0.195999 17.6393C0.652558 18.962 1.89061 19.7872 3.39465 19.7899C6.05448 19.7946 8.71363 19.7926 11.3735 19.7872C11.5592 19.7866 11.684 19.8389 11.8149 19.9732C13.2628 21.4524 15.0266 22.1594 17.1209 21.9694C21.0626 21.6115 23.7917 17.8421 22.7929 14.0908ZM10.8881 12.4928C9.84886 14.3158 9.80155 16.2193 10.5872 18.1684C10.4932 18.1745 10.4274 18.1825 10.3623 18.1825C8.03633 18.1832 5.70966 18.1859 3.38368 18.1818C2.47605 18.1805 1.81452 17.6554 1.66645 16.8323C1.64588 16.7175 1.6452 16.5986 1.6452 16.4818C1.64451 12.0839 1.64382 7.68676 1.6452 3.28891C1.6452 2.29452 2.33895 1.61168 3.35078 1.61101C6.89973 1.609 10.4494 1.609 13.9983 1.61101C14.9978 1.61168 15.7012 2.29251 15.7032 3.26474C15.7073 5.19979 15.7046 7.13485 15.7039 9.06923C15.7039 9.12697 15.6984 9.18539 15.6943 9.26126C13.5617 9.60839 11.9335 10.6592 10.8881 12.4928ZM16.5135 20.3996C13.8537 20.3949 11.6936 18.2389 11.7005 15.5948C11.7073 12.9655 13.8695 10.8237 16.5204 10.821C19.1891 10.819 21.3595 12.9843 21.3485 15.6385C21.3375 18.2624 19.1624 20.4043 16.5135 20.3996Z" fill="white"/>
<path d="M12.807 7.44521C13.2615 7.368 13.5542 6.93895 13.4575 6.49715C13.3684 6.08893 13.0483 5.8593 12.5458 5.85796C11.2645 5.85527 9.98261 5.85728 8.70137 5.85661C7.43726 5.85661 6.17247 5.85594 4.90837 5.85728C4.78908 5.85728 4.66843 5.85728 4.55052 5.87407C4.09808 5.93786 3.79165 6.37361 3.88419 6.81138C3.974 7.2364 4.29345 7.46401 4.81171 7.46401C7.38311 7.46468 9.9545 7.46468 12.5259 7.46334C12.6198 7.46401 12.7151 7.46065 12.807 7.44521Z" fill="white"/>
<path d="M8.65804 14.8352C8.27689 14.8446 7.96223 15.1574 7.95949 15.5294C7.95675 15.9108 8.28306 16.2311 8.67381 16.2304C9.06455 16.2297 9.39086 15.9074 9.38606 15.5267C9.38127 15.146 9.04399 14.8258 8.65804 14.8352Z" fill="white"/>
<path d="M8.67684 11.4072C8.28403 11.4052 7.95772 11.7228 7.96047 12.1048C7.96252 12.4855 8.29774 12.8085 8.68301 12.8018C9.07101 12.7951 9.39732 12.4634 9.38704 12.086C9.37744 11.7121 9.06005 11.4093 8.67684 11.4072Z" fill="white"/>
<path d="M4.68973 14.835C4.30035 14.833 3.97267 15.1552 3.9761 15.5373C3.97884 15.9126 4.28939 16.2228 4.67191 16.2309C5.06608 16.2389 5.39034 15.9301 5.39445 15.5427C5.39856 15.1552 5.08185 14.837 4.68973 14.835Z" fill="white"/>
<path d="M4.69449 11.4072C4.29689 11.4052 3.98086 11.7148 3.98292 12.1048C3.98429 12.4808 4.29209 12.791 4.67461 12.8025C5.06125 12.8139 5.39236 12.4976 5.39716 12.1122C5.40195 11.7195 5.09278 11.4086 4.69449 11.4072Z" fill="white"/>
<path d="M16.6052 14.9784C16.5311 14.9737 16.4551 14.9656 16.3844 14.9461C16.1191 14.8716 15.9683 14.5876 16.0403 14.3076C16.1068 14.0491 16.3666 13.8906 16.634 13.9457C16.8602 13.9927 16.9884 14.1619 17.0261 14.464C17.0748 14.8588 17.3682 15.1173 17.7315 15.0851C18.0996 15.0529 18.3368 14.7729 18.3231 14.2458C18.2806 13.6919 17.9502 13.1796 17.3305 12.8405C17.2407 12.7915 17.1563 12.7049 17.1084 12.6156C16.9836 12.3806 16.7971 12.2423 16.5305 12.2403C16.2542 12.2376 16.0629 12.3793 15.9361 12.6223C15.8922 12.7069 15.8148 12.7942 15.7298 12.8372C14.6912 13.3602 14.3875 14.6635 15.1046 15.5618C15.4658 16.0144 15.9519 16.2265 16.5332 16.2574C16.841 16.2735 17.0282 16.4897 17.0213 16.7858C17.0151 17.0591 16.8095 17.278 16.5449 17.2921C16.2809 17.3062 16.0629 17.1034 16.0259 16.808C16.0225 16.7818 16.0204 16.755 16.017 16.7288C15.9615 16.3427 15.6845 16.1131 15.3075 16.1393C14.9531 16.1634 14.7056 16.4454 14.7214 16.8255C14.7502 17.5224 15.0936 18.0287 15.7071 18.3738C15.8024 18.4275 15.8902 18.5188 15.943 18.6135C16.0732 18.8438 16.2556 18.9801 16.5263 18.9794C16.8067 18.9787 16.9911 18.8337 17.1145 18.5906C17.155 18.5107 17.2283 18.4288 17.3078 18.3892C18.0462 18.0219 18.4588 17.2229 18.3019 16.4434C18.1339 15.6075 17.4689 15.0341 16.6052 14.9784Z" fill="white"/>
</svg>
