<svg width="23" height="22" viewBox="0 0 23 22" fill="none" xmlns="http://www.w3.org/2000/svg">
<path d="M22.7929 14.0908C22.0663 11.3608 20.1913 9.80176 17.3451 9.24246C17.3451 9.15652 17.3451 9.05849 17.3451 8.95979C17.3451 7.04152 17.3512 5.12325 17.343 3.20565C17.3355 1.43308 15.8842 0.00696976 14.0813 0.00428405C10.4727 -0.00108737 6.8634 -0.0017588 3.25481 0.00428405C1.46627 0.00764119 0.0067947 1.43644 0.0040526 3.19021C-0.00211711 7.66326 -0.00211711 12.1356 0.0102223 16.6087C0.0109078 16.9531 0.0828878 17.3117 0.195999 17.6393C0.652558 18.962 1.89061 19.7872 3.39465 19.7899C6.05448 19.7946 8.71363 19.7926 11.3735 19.7872C11.5592 19.7866 11.684 19.8389 11.8149 19.9732C13.2628 21.4524 15.0266 22.1594 17.1209 21.9694C21.0626 21.6115 23.7917 17.8421 22.7929 14.0908ZM10.8881 12.4928C9.84886 14.3158 9.80155 16.2193 10.5872 18.1684C10.4932 18.1745 10.4274 18.1825 10.3623 18.1825C8.03633 18.1832 5.70966 18.1859 3.38368 18.1818C2.47605 18.1805 1.81452 17.6554 1.66645 16.8323C1.64588 16.7175 1.6452 16.5986 1.6452 16.4818C1.64451 12.0839 1.64382 7.68676 1.6452 3.28891C1.6452 2.29452 2.33895 1.61168 3.35078 1.61101C6.89973 1.609 10.4494 1.609 13.9983 1.61101C14.9978 1.61168 15.7012 2.29251 15.7032 3.26474C15.7073 5.19979 15.7046 7.13485 15.7039 9.06923C15.7039 9.12697 15.6984 9.18539 15.6943 9.26126C13.5617 9.60839 11.9335 10.6592 10.8881 12.4928ZM16.5135 20.3996C13.8537 20.3949 11.6936 18.2389 11.7005 15.5948C11.7073 12.9655 13.8695 10.8237 16.5204 10.821C19.1891 10.819 21.3595 12.9843 21.3485 15.6385C21.3375 18.2624 19.1624 20.4043 16.5135 20.3996Z" fill="#280559"/>
<path d="M12.8065 7.44521C13.261 7.368 13.5537 6.93895 13.457 6.49715C13.3679 6.08893 13.0478 5.8593 12.5453 5.85796C11.2641 5.85527 9.98212 5.85728 8.70088 5.85661C7.43677 5.85661 6.17198 5.85594 4.90788 5.85728C4.7886 5.85728 4.66794 5.85728 4.55003 5.87407C4.09759 5.93786 3.79116 6.37361 3.88371 6.81138C3.97351 7.2364 4.29296 7.46401 4.81122 7.46401C7.38262 7.46468 9.95402 7.46468 12.5254 7.46334C12.6193 7.46401 12.7146 7.46065 12.8065 7.44521Z" fill="#280559"/>
<path d="M8.65853 14.8352C8.27738 14.8446 7.96272 15.1574 7.95998 15.5294C7.95724 15.9108 8.28355 16.2311 8.67429 16.2304C9.06504 16.2297 9.39135 15.9074 9.38655 15.5267C9.38175 15.146 9.04448 14.8258 8.65853 14.8352Z" fill="#280559"/>
<path d="M8.67635 11.4072C8.28354 11.4052 7.95724 11.7228 7.95998 12.1048C7.96203 12.4855 8.29726 12.8085 8.68252 12.8018C9.07053 12.7951 9.39683 12.4634 9.38655 12.086C9.37695 11.7121 9.05956 11.4093 8.67635 11.4072Z" fill="#280559"/>
<path d="M4.68924 14.835C4.29987 14.833 3.97218 15.1552 3.97561 15.5373C3.97835 15.9126 4.2889 16.2228 4.67142 16.2309C5.0656 16.2389 5.38985 15.9301 5.39396 15.5427C5.39807 15.1552 5.08136 14.837 4.68924 14.835Z" fill="#280559"/>
<path d="M4.69401 11.4072C4.2964 11.4052 3.98038 11.7148 3.98243 12.1048C3.9838 12.4808 4.2916 12.791 4.67413 12.8025C5.06076 12.8139 5.39187 12.4976 5.39667 12.1122C5.40147 11.7195 5.09229 11.4086 4.69401 11.4072Z" fill="#280559"/>
<path d="M16.6057 14.9784C16.5316 14.9737 16.4555 14.9656 16.3849 14.9461C16.1196 14.8716 15.9688 14.5876 16.0408 14.3076C16.1073 14.0491 16.3671 13.8906 16.6345 13.9457C16.8607 13.9927 16.9889 14.1619 17.0266 14.464C17.0753 14.8588 17.3687 15.1173 17.732 15.0851C18.1001 15.0529 18.3373 14.7729 18.3236 14.2458C18.2811 13.6919 17.9507 13.1796 17.331 12.8405C17.2412 12.7915 17.1568 12.7049 17.1088 12.6156C16.9841 12.3806 16.7976 12.2423 16.531 12.2403C16.2547 12.2376 16.0634 12.3793 15.9366 12.6223C15.8927 12.7069 15.8153 12.7942 15.7303 12.8372C14.6917 13.3602 14.388 14.6635 15.1051 15.5618C15.4663 16.0144 15.9524 16.2265 16.5337 16.2574C16.8415 16.2735 17.0286 16.4897 17.0218 16.7858C17.0156 17.0591 16.81 17.278 16.5453 17.2921C16.2814 17.3062 16.0634 17.1034 16.0264 16.808C16.023 16.7818 16.0209 16.755 16.0175 16.7288C15.962 16.3427 15.685 16.1131 15.308 16.1393C14.9536 16.1634 14.7061 16.4454 14.7219 16.8255C14.7506 17.5224 15.0941 18.0287 15.7076 18.3738C15.8029 18.4275 15.8907 18.5188 15.9435 18.6135C16.0737 18.8438 16.2561 18.9801 16.5268 18.9794C16.8072 18.9787 16.9916 18.8337 17.115 18.5906C17.1555 18.5107 17.2288 18.4288 17.3083 18.3892C18.0466 18.0219 18.4593 17.2229 18.3023 16.4434C18.1344 15.6075 17.4694 15.0341 16.6057 14.9784Z" fill="#280559"/>
</svg>
