<svg width="20" height="26" viewBox="0 0 20 26" fill="none" xmlns="http://www.w3.org/2000/svg">
<path d="M12 2V9H18" fill="#280559"/>
<path d="M12 2V9H18" stroke="white" stroke-width="2" stroke-linecap="round" stroke-linejoin="round"/>
<path d="M5.66667 16.3333C5.48986 16.3333 5.32029 16.2631 5.19526 16.1381C5.07024 16.013 5 15.8435 5 15.6667C5 15.4899 5.07024 15.3203 5.19526 15.1953C5.32029 15.0702 5.48986 15 5.66667 15H15C15.1768 15 15.3464 15.0702 15.4714 15.1953C15.5964 15.3203 15.6667 15.4899 15.6667 15.6667C15.6667 15.8435 15.5964 16.013 15.4714 16.1381C15.3464 16.2631 15.1768 16.3333 15 16.3333H5.66667ZM5.66667 19.6667C5.48986 19.6667 5.32029 19.5964 5.19526 19.4714C5.07024 19.3464 5 19.1768 5 19C5 18.8232 5.07024 18.6536 5.19526 18.5286C5.32029 18.4036 5.48986 18.3333 5.66667 18.3333H15C15.1768 18.3333 15.3464 18.4036 15.4714 18.5286C15.5964 18.6536 15.6667 18.8232 15.6667 19C15.6667 19.1768 15.5964 19.3464 15.4714 19.4714C15.3464 19.5964 15.1768 19.6667 15 19.6667H5.66667Z" fill="white" stroke="white" stroke-width="0.5"/>
<path fill-rule="evenodd" clip-rule="evenodd" d="M11.9133 1H3C2.46957 1 1.96086 1.21071 1.58579 1.58579C1.21071 1.96086 1 2.46957 1 3V23C1 23.5304 1.21071 24.0391 1.58579 24.4142C1.96086 24.7893 2.46957 25 3 25H17.6667C18.1971 25 18.7058 24.7893 19.0809 24.4142C19.456 24.0391 19.6667 23.5304 19.6667 23V9.26933C19.6665 8.76863 19.4786 8.28619 19.14 7.91733L13.388 1.648C13.2005 1.44366 12.9727 1.28053 12.7188 1.16898C12.4649 1.05743 12.1906 0.99988 11.9133 1ZM2.33333 3C2.33333 2.82319 2.40357 2.65362 2.5286 2.5286C2.65362 2.40357 2.82319 2.33333 3 2.33333H11.9133C12.0058 2.33323 12.0974 2.35238 12.1821 2.38957C12.2668 2.42676 12.3428 2.48117 12.4053 2.54933L18.1573 8.81867C18.2704 8.94155 18.3332 9.10237 18.3333 9.26933V23C18.3333 23.1768 18.2631 23.3464 18.1381 23.4714C18.013 23.5964 17.8435 23.6667 17.6667 23.6667H3C2.82319 23.6667 2.65362 23.5964 2.5286 23.4714C2.40357 23.3464 2.33333 23.1768 2.33333 23V3Z" fill="white" stroke="white" stroke-width="0.5"/>
<path d="M7.84543 7.84369C8.03583 7.84952 8.22547 7.81705 8.40309 7.74822C8.58071 7.67938 8.74269 7.57557 8.87944 7.44295C9.01618 7.31033 9.1249 7.15159 9.19914 6.97617C9.27339 6.80074 9.31164 6.61218 9.31164 6.42169C9.31164 6.2312 9.27339 6.04264 9.19914 5.86722C9.1249 5.69179 9.01618 5.53305 8.87944 5.40043C8.74269 5.26781 8.58071 5.164 8.40309 5.09516C8.22547 5.02633 8.03583 4.99386 7.84543 4.99969C7.47583 5.01101 7.12515 5.16579 6.86772 5.43123C6.61028 5.69667 6.46631 6.05192 6.46631 6.42169C6.46631 6.79146 6.61028 7.14671 6.86772 7.41215C7.12515 7.67759 7.47583 7.83237 7.84543 7.84369Z" fill="white"/>
<path fill-rule="evenodd" clip-rule="evenodd" d="M10.688 10.925C10.688 9.41303 9.41467 8.31836 7.844 8.31836C6.27333 8.31836 5 9.41169 5 10.925V11.637C5.00035 11.7627 5.05052 11.8831 5.1395 11.9718C5.22848 12.0605 5.34901 12.1104 5.47467 12.1104H10.2147C10.3401 12.11 10.4603 12.06 10.549 11.9713C10.6377 11.8826 10.6876 11.7625 10.688 11.637V10.925Z" fill="white"/>
</svg>
