<svg width="23" height="23" viewBox="0 0 23 23" fill="none" xmlns="http://www.w3.org/2000/svg">
<path d="M22.3253 15.3923L22.3585 15.2817C23.2138 12.8331 23.2138 10.1669 22.3585 7.71827L22.3253 7.60769C21.5183 5.38286 20.047 3.45983 18.1107 2.09905C16.1744 0.738272 13.8666 0.00550536 11.5 0C9.13262 0.00232805 6.82343 0.733847 4.88651 2.09506C2.94959 3.45626 1.47898 5.38108 0.674711 7.60769L0.641538 7.71827C-0.213846 10.1669 -0.213846 12.8331 0.641538 15.2817L0.674711 15.3923C1.47898 17.6189 2.94959 19.5437 4.88651 20.9049C6.82343 22.2662 9.13262 22.9977 11.5 23C13.8674 22.9977 16.1766 22.2662 18.1135 20.9049C20.0504 19.5437 21.521 17.6189 22.3253 15.3923ZM8.68034 15.9231H14.3197C13.753 17.682 12.7881 19.2865 11.5 20.6115C10.2119 19.2865 9.24696 17.682 8.68034 15.9231ZM8.21592 14.1538C7.87692 12.4009 7.87692 10.5991 8.21592 8.84615H14.7841C14.9524 9.72076 15.0376 10.6093 15.0384 11.5C15.0381 12.3907 14.9529 13.2793 14.7841 14.1538H8.21592ZM1.7694 11.5C1.77128 10.603 1.89402 9.71036 2.1343 8.84615H6.41355C6.11868 10.6031 6.11868 12.3969 6.41355 14.1538H2.1343C1.89402 13.2896 1.77128 12.397 1.7694 11.5ZM14.3197 7.07692H8.68034C9.24696 5.31796 10.2119 3.71351 11.5 2.38846C12.7881 3.71351 13.753 5.31796 14.3197 7.07692ZM16.5864 8.84615H20.8657C21.3524 10.5819 21.3524 12.4181 20.8657 14.1538H16.5864C16.8813 12.3969 16.8813 10.6031 16.5864 8.84615ZM20.1691 7.07692H16.1884C15.6563 5.21404 14.7495 3.47942 13.5235 1.97933C14.9391 2.28499 16.2694 2.90071 17.4185 3.78216C18.5676 4.66361 19.507 5.78886 20.1691 7.07692ZM9.47648 1.97933C8.25048 3.47942 7.34367 5.21404 6.81162 7.07692H2.83092C3.49299 5.78886 4.4324 4.66361 5.58151 3.78216C6.73063 2.90071 8.06087 2.28499 9.47648 1.97933ZM2.83092 15.9231H6.81162C7.34367 17.786 8.25048 19.5206 9.47648 21.0207C8.05999 20.7172 6.72878 20.1023 5.57936 19.2206C4.42994 18.339 3.4911 17.2125 2.83092 15.9231ZM13.5235 21.0207C14.7495 19.5206 15.6563 17.786 16.1884 15.9231H20.1691C19.5089 17.2125 18.5701 18.339 17.4206 19.2206C16.2712 20.1023 14.94 20.7172 13.5235 21.0207Z" fill="white"/>
</svg>
