<svg width="20" height="20" viewBox="0 0 20 20" stroke="#E6EFF3" fill="none" xmlns="http://www.w3.org/2000/svg">
<path d="M1 2.125C1 1.82663 1.11853 1.54048 1.32951 1.32951C1.54048 1.11853 1.82663 1 2.125 1H6.625C6.92337 1 7.20952 1.11853 7.42049 1.32951C7.63147 1.54048 7.75 1.82663 7.75 2.125V7.75C7.75 8.04837 7.63147 8.33452 7.42049 8.54549C7.20952 8.75647 6.92337 8.875 6.625 8.875H2.125C1.82663 8.875 1.54048 8.75647 1.32951 8.54549C1.11853 8.33452 1 8.04837 1 7.75V2.125ZM12.25 2.125C12.25 1.82663 12.3685 1.54048 12.5795 1.32951C12.7905 1.11853 13.0766 1 13.375 1H17.875C18.1734 1 18.4595 1.11853 18.6705 1.32951C18.8815 1.54048 19 1.82663 19 2.125V4.375C19 4.67337 18.8815 4.95952 18.6705 5.17049C18.4595 5.38147 18.1734 5.5 17.875 5.5H13.375C13.0766 5.5 12.7905 5.38147 12.5795 5.17049C12.3685 4.95952 12.25 4.67337 12.25 4.375V2.125ZM1 14.5C1 14.2016 1.11853 13.9155 1.32951 13.7045C1.54048 13.4935 1.82663 13.375 2.125 13.375H6.625C6.92337 13.375 7.20952 13.4935 7.42049 13.7045C7.63147 13.9155 7.75 14.2016 7.75 14.5V17.875C7.75 18.1734 7.63147 18.4595 7.42049 18.6705C7.20952 18.8815 6.92337 19 6.625 19H2.125C1.82663 19 1.54048 18.8815 1.32951 18.6705C1.11853 18.4595 1 18.1734 1 17.875V14.5ZM12.25 11.125C12.25 10.8266 12.3685 10.5405 12.5795 10.3295C12.7905 10.1185 13.0766 10 13.375 10H17.875C18.1734 10 18.4595 10.1185 18.6705 10.3295C18.8815 10.5405 19 10.8266 19 11.125V17.875C19 18.1734 18.8815 18.4595 18.6705 18.6705C18.4595 18.8815 18.1734 19 17.875 19H13.375C13.0766 19 12.7905 18.8815 12.5795 18.6705C12.3685 18.4595 12.25 18.1734 12.25 17.875V11.125Z" stroke="#92929D" stroke-width="1.5"/>
</svg>
