<svg width="24" height="23" viewBox="0 0 24 23" fill="none" xmlns="http://www.w3.org/2000/svg">
<g clip-path="url(#clip0_512_9708)">
<path d="M23.9977 4.95239C23.9834 4.8825 23.9698 4.81203 23.9562 4.74214C23.9266 4.59052 23.8963 4.43417 23.8611 4.28018C23.3412 2.01365 21.3768 0.310339 18.9729 0.0408652C18.9531 0.0384962 18.9266 0.0302047 18.8981 0.021321C18.8802 0.0153985 18.8617 0.0100682 18.8437 0.00533024L18.8239 0H5.1992L5.17076 0.002369C5.10462 0.014214 5.03849 0.026059 4.97173 0.0373117C4.82894 0.0621862 4.68059 0.0876529 4.53471 0.11845C3.21378 0.398584 2.08137 1.06309 1.2605 2.04148C0.438387 3.02047 0.00322638 4.22392 0.00260826 5.52154C-0.0011005 9.88642 0.000135752 13.7947 0.00569889 17.4696C0.00631702 17.806 0.0384596 18.1625 0.102127 18.5285C0.505145 20.8584 2.67168 22.7933 5.03539 22.9337C5.93971 22.9876 6.85516 23.0006 7.76133 23.0006C8.21133 23.0006 8.65885 22.997 9.10205 22.9941C9.54463 22.9911 10.0008 22.9876 10.4514 22.9876C10.4916 22.9876 10.5312 22.9864 10.5726 22.9876C11.0362 22.9876 11.4206 22.6997 11.5511 22.2538C11.6475 21.9239 11.5894 21.5904 11.3916 21.3393C11.1851 21.0781 10.847 20.9277 10.4632 20.9265C9.76715 20.9248 9.07053 20.9248 8.37451 20.9254C7.5351 20.9254 6.66663 20.9259 5.813 20.9224C5.49899 20.9212 5.25297 20.9011 5.0391 20.8596C3.32009 20.5268 2.1642 19.1693 2.16358 17.4808C2.16172 13.9226 2.16234 10.3644 2.16296 6.80613V5.5778C2.16358 3.54639 3.699 2.0711 5.81485 2.06991C7.10426 2.06932 8.39429 2.06932 9.68371 2.06932H10.9737C11.7031 2.06932 12.4319 2.06873 13.1607 2.06813C14.863 2.06636 16.6228 2.06517 18.3529 2.07287C20.088 2.08057 21.5993 3.36694 21.794 5.00154C21.8497 5.46764 21.8453 5.9527 21.8416 6.42176C21.8404 6.58522 21.8392 6.74809 21.8404 6.91096C21.8435 7.3735 21.8429 7.84375 21.8416 8.2986C21.841 8.81741 21.8398 9.35339 21.8447 9.88109C21.8478 10.2394 22.0141 10.5562 22.3009 10.7499C22.5852 10.9424 22.9481 10.9862 23.2961 10.8713C23.7121 10.7333 23.887 10.4029 23.9927 10.1298L24.0026 10.105V4.98022L23.9977 4.95239Z" fill="white"/>
<path d="M6.51042 7.18202C6.81701 7.18557 7.12546 7.18616 7.43267 7.18616C7.67436 7.18616 7.91481 7.18557 8.15155 7.18498C8.38335 7.18439 8.61453 7.1838 8.84632 7.1838C9.0194 7.1838 9.39955 7.1838 9.89529 7.18439C11.6563 7.18557 14.9343 7.18853 15.5549 7.18143C16.1476 7.17432 16.6125 6.72243 16.6137 6.15151C16.6143 5.58413 16.1408 5.12099 15.5573 5.11803C13.9731 5.11092 8.03596 5.1127 6.49188 5.11744C5.9912 5.11921 5.5956 5.39757 5.46023 5.84472C5.36071 6.17401 5.41696 6.50982 5.61599 6.76685C5.8175 7.02685 6.14387 7.17787 6.51042 7.18202Z" fill="white"/>
<path d="M13.0853 9.08604C11.4374 9.07834 8.00307 9.08071 6.49237 9.08545C5.99169 9.08722 5.59609 9.36558 5.46072 9.81273C5.3612 10.142 5.41745 10.4778 5.61648 10.7349C5.81799 10.9949 6.14375 11.1459 6.51091 11.15C6.81689 11.1536 7.12595 11.1542 7.43316 11.1542C7.67484 11.1542 7.9153 11.1536 8.15204 11.153C8.38384 11.1524 8.61502 11.1518 8.84681 11.1518C9.04647 11.1524 9.36233 11.1524 9.7363 11.1524C10.8322 11.1536 12.4882 11.1559 13.0835 11.1488C13.6762 11.1417 14.1411 10.6898 14.1423 10.1189C14.1423 9.55214 13.6688 9.089 13.0853 9.08604Z" fill="white"/>
<path d="M20.1557 17.4367C19.8627 17.2371 19.401 16.9641 18.7829 16.6253L18.7773 16.6224C18.3248 16.3973 17.983 16.2125 17.7605 16.0734C17.5503 15.9419 17.3945 15.8027 17.2969 15.6606C17.2042 15.5261 17.1572 15.3573 17.1572 15.1601C17.1572 14.8628 17.245 14.6395 17.4255 14.4773C17.6084 14.3126 17.8594 14.2327 18.1913 14.2327C18.5752 14.2327 18.87 14.3345 19.0932 14.5442C19.3151 14.7532 19.4232 15.0126 19.4232 15.3366V15.5771C19.4232 15.6588 19.4548 15.7322 19.5147 15.7891C19.5747 15.8465 19.6513 15.8773 19.7366 15.8773H20.8857C20.9704 15.8773 21.0471 15.8471 21.1076 15.7897C21.1676 15.7322 21.1991 15.6588 21.1991 15.5777V15.3117C21.1991 14.6466 20.9939 14.0739 20.5884 13.6096C20.1959 13.1601 19.6643 12.8705 19.0085 12.7479L19.0332 11.9081C19.0332 11.8269 19.0017 11.7535 18.9411 11.6955C18.8811 11.6386 18.8045 11.6084 18.7198 11.6084H17.7821C17.6968 11.6084 17.6202 11.6386 17.5608 11.6961C17.5009 11.7535 17.4693 11.8269 17.4693 11.9128L17.4941 12.7349C16.8568 12.8486 16.3419 13.1163 15.963 13.5314C15.5692 13.962 15.3702 14.514 15.3702 15.1726C15.3702 15.6712 15.487 16.1024 15.7176 16.453C15.9432 16.7977 16.2263 17.0843 16.5588 17.3058C16.8784 17.5185 17.3105 17.7642 17.8415 18.0361C18.2945 18.27 18.6351 18.4572 18.8539 18.5928C19.0604 18.7207 19.2193 18.8605 19.3256 19.0086C19.4269 19.1489 19.4764 19.3142 19.4764 19.5126C19.4764 19.8022 19.3837 20.0278 19.1939 20.2025C19.0017 20.379 18.7346 20.4649 18.3768 20.4649C17.9781 20.4649 17.6603 20.363 17.431 20.1623C17.2029 19.9621 17.0917 19.708 17.0917 19.3858V19.1329C17.0917 19.0518 17.0601 18.9783 16.9996 18.9203C16.9396 18.8635 16.863 18.8332 16.7783 18.8332H15.6292C15.5439 18.8332 15.4672 18.8635 15.4079 18.9209C15.3479 18.9783 15.3164 19.0518 15.3164 19.1329V19.4616C15.3164 20.1113 15.5204 20.6657 15.9222 21.1087C16.3104 21.5369 16.8432 21.8194 17.5077 21.9491L17.4953 22.7006C17.4953 22.7818 17.5268 22.8552 17.5868 22.9127C17.6467 22.9701 17.7234 23.0003 17.8081 23.0003H18.7458C18.8305 23.0003 18.9071 22.9701 18.9677 22.9121C19.027 22.8546 19.0585 22.7812 19.0585 22.6977L19.0462 21.9627C19.7094 21.849 20.2472 21.573 20.644 21.1407C21.0551 20.6929 21.2634 20.1238 21.2634 19.4486C21.2634 18.9754 21.1534 18.5679 20.9358 18.2374C20.7238 17.9147 20.4611 17.6452 20.1557 17.4367Z" fill="white"/>
</g>
<defs>
<clipPath id="clip0_512_9708">
<rect width="24" height="23" fill="white"/>
</clipPath>
</defs>
</svg>
