<svg width="24" height="23" viewBox="0 0 24 23" fill="none" xmlns="http://www.w3.org/2000/svg">
<g clip-path="url(#clip0_512_440)">
<path d="M23.9972 4.95239C23.983 4.8825 23.9694 4.81203 23.9558 4.74214C23.9261 4.59052 23.8958 4.43417 23.8606 4.28018C23.3407 2.01365 21.3763 0.310339 18.9724 0.0408652C18.9526 0.0384962 18.9261 0.0302047 18.8976 0.021321C18.8797 0.0153985 18.8612 0.0100682 18.8432 0.00533024L18.8235 0H5.19871L5.17028 0.002369C5.10414 0.014214 5.038 0.026059 4.97124 0.0373117C4.82845 0.0621862 4.6801 0.0876529 4.53422 0.11845C3.21329 0.398584 2.08088 1.06309 1.26001 2.04148C0.437899 3.02047 0.0027381 4.22392 0.00211998 5.52154C-0.00158878 9.88642 -0.00035253 13.7947 0.00521061 17.4696C0.00582874 17.806 0.0379713 18.1625 0.101638 18.5285C0.504657 20.8584 2.67119 22.7933 5.03491 22.9337C5.93923 22.9876 6.85467 23.0006 7.76084 23.0006C8.21084 23.0006 8.65836 22.997 9.10156 22.9941C9.54414 22.9911 10.0003 22.9876 10.4509 22.9876C10.4911 22.9876 10.5307 22.9864 10.5721 22.9876C11.0357 22.9876 11.4202 22.6997 11.5506 22.2538C11.647 21.9239 11.5889 21.5904 11.3911 21.3393C11.1846 21.0781 10.8465 20.9277 10.4627 20.9265C9.76667 20.9248 9.07004 20.9248 8.37403 20.9254C7.53461 20.9254 6.66614 20.9259 5.81251 20.9224C5.4985 20.9212 5.25249 20.9011 5.03861 20.8596C3.3196 20.5268 2.16371 19.1693 2.16309 17.4808C2.16124 13.9226 2.16185 10.3644 2.16247 6.80613V5.5778C2.16309 3.54639 3.69852 2.0711 5.81436 2.06991C7.10378 2.06932 8.39381 2.06932 9.68322 2.06932H10.9732C11.7026 2.06932 12.4314 2.06873 13.1602 2.06813C14.8625 2.06636 16.6223 2.06517 18.3524 2.07287C20.0875 2.08057 21.5988 3.36694 21.7936 5.00154C21.8492 5.46764 21.8449 5.9527 21.8412 6.42176C21.8399 6.58522 21.8387 6.74809 21.8399 6.91096C21.843 7.3735 21.8424 7.84375 21.8412 8.2986C21.8405 8.81741 21.8393 9.35339 21.8442 9.88109C21.8473 10.2394 22.0136 10.5562 22.3004 10.7499C22.5848 10.9424 22.9476 10.9862 23.2956 10.8713C23.7116 10.7333 23.8865 10.4029 23.9922 10.1298L24.0021 10.105V4.98022L23.9972 4.95239Z" fill="#280559"/>
<path d="M6.50945 7.18202C6.81604 7.18557 7.12448 7.18616 7.43169 7.18616C7.67338 7.18616 7.91383 7.18557 8.15057 7.18498C8.38237 7.18439 8.61355 7.1838 8.84535 7.1838C9.01842 7.1838 9.39857 7.1838 9.89431 7.18439C11.6554 7.18557 14.9333 7.18853 15.5539 7.18143C16.1467 7.17432 16.6115 6.72243 16.6127 6.15151C16.6133 5.58413 16.1399 5.12099 15.5563 5.11803C13.9721 5.11092 8.03498 5.1127 6.4909 5.11744C5.99022 5.11921 5.59462 5.39757 5.45925 5.84472C5.35973 6.17401 5.41598 6.50982 5.61502 6.76685C5.81653 7.02685 6.1429 7.17787 6.50945 7.18202Z" fill="#280559"/>
<path d="M13.0848 9.08604C11.4369 9.07834 8.00258 9.08071 6.49188 9.08545C5.9912 9.08722 5.5956 9.36558 5.46023 9.81273C5.36071 10.142 5.41696 10.4778 5.616 10.7349C5.8175 10.9949 6.14326 11.1459 6.51042 11.15C6.8164 11.1536 7.12546 11.1542 7.43267 11.1542C7.67436 11.1542 7.91481 11.1536 8.15155 11.153C8.38335 11.1524 8.61453 11.1518 8.84632 11.1518C9.04598 11.1524 9.36184 11.1524 9.73581 11.1524C10.8317 11.1536 12.4877 11.1559 13.083 11.1488C13.6757 11.1417 14.1406 10.6898 14.1418 10.1189C14.1418 9.55214 13.6683 9.089 13.0848 9.08604Z" fill="#280559"/>
<path d="M20.1547 17.4367C19.8618 17.2371 19.4 16.9641 18.7819 16.6253L18.7763 16.6224C18.3239 16.3973 17.982 16.2125 17.7595 16.0734C17.5493 15.9419 17.3936 15.8027 17.2959 15.6606C17.2032 15.5261 17.1562 15.3573 17.1562 15.1601C17.1562 14.8628 17.244 14.6395 17.4245 14.4773C17.6074 14.3126 17.8584 14.2327 18.1903 14.2327C18.5742 14.2327 18.869 14.3345 19.0922 14.5442C19.3141 14.7532 19.4223 15.0126 19.4223 15.3366V15.5771C19.4223 15.6588 19.4538 15.7322 19.5137 15.7891C19.5737 15.8465 19.6504 15.8773 19.7357 15.8773H20.8848C20.9694 15.8773 21.0461 15.8471 21.1067 15.7897C21.1666 15.7322 21.1981 15.6588 21.1981 15.5777V15.3117C21.1981 14.6466 20.9929 14.0739 20.5874 13.6096C20.1949 13.1601 19.6633 12.8705 19.0075 12.7479L19.0322 11.9081C19.0322 11.8269 19.0007 11.7535 18.9401 11.6955C18.8802 11.6386 18.8035 11.6084 18.7188 11.6084H17.7811C17.6958 11.6084 17.6192 11.6386 17.5598 11.6961C17.4999 11.7535 17.4684 11.8269 17.4684 11.9128L17.4931 12.7349C16.8558 12.8486 16.3409 13.1163 15.962 13.5314C15.5682 13.962 15.3692 14.514 15.3692 15.1726C15.3692 15.6712 15.486 16.1024 15.7166 16.453C15.9422 16.7977 16.2253 17.0843 16.5579 17.3058C16.8774 17.5185 17.3095 17.7642 17.8405 18.0361C18.2936 18.27 18.6342 18.4572 18.853 18.5928C19.0594 18.7207 19.2183 18.8605 19.3246 19.0086C19.426 19.1489 19.4754 19.3142 19.4754 19.5126C19.4754 19.8022 19.3827 20.0278 19.1929 20.2025C19.0007 20.379 18.7337 20.4649 18.3758 20.4649C17.9771 20.4649 17.6594 20.363 17.43 20.1623C17.202 19.9621 17.0907 19.708 17.0907 19.3858V19.1329C17.0907 19.0518 17.0592 18.9783 16.9986 18.9203C16.9386 18.8635 16.862 18.8332 16.7773 18.8332H15.6282C15.5429 18.8332 15.4663 18.8635 15.4069 18.9209C15.347 18.9783 15.3154 19.0518 15.3154 19.1329V19.4616C15.3154 20.1113 15.5194 20.6657 15.9212 21.1087C16.3094 21.5369 16.8422 21.8194 17.5067 21.9491L17.4943 22.7006C17.4943 22.7818 17.5259 22.8552 17.5858 22.9127C17.6458 22.9701 17.7224 23.0003 17.8071 23.0003H18.7448C18.8295 23.0003 18.9061 22.9701 18.9667 22.9121C19.026 22.8546 19.0576 22.7812 19.0576 22.6977L19.0452 21.9627C19.7085 21.849 20.2462 21.573 20.6431 21.1407C21.0541 20.6929 21.2624 20.1238 21.2624 19.4486C21.2624 18.9754 21.1524 18.5679 20.9348 18.2374C20.7228 17.9147 20.4601 17.6452 20.1547 17.4367Z" fill="#280559"/>
</g>
<defs>
<clipPath id="clip0_512_440">
<rect width="24" height="23" fill="white"/>
</clipPath>
</defs>
</svg>
