<svg width="19" height="23" viewBox="0 0 19 23" fill="none" xmlns="http://www.w3.org/2000/svg">
<path d="M2.72859 1.84596C2.831 1.85815 2.92705 1.85687 3.01419 1.85623H3.03964C3.05363 1.85623 3.06826 1.85623 3.0778 1.85623C3.32524 1.85687 3.57268 1.85623 3.82584 1.85687V2.57253C3.82584 3.42811 3.82648 4.28434 3.82457 5.13992C3.82393 5.42041 3.85256 5.74198 4.05865 6.03209C3.78386 6.95379 3.74251 7.8697 3.93525 8.75546C4.44539 11.0988 5.89441 12.6367 8.12644 13.2035C8.64867 13.3363 9.16454 13.4031 9.65942 13.4031H9.66006C11.2904 13.4031 12.7578 12.6656 13.9047 11.2709C15.1362 9.77279 15.4905 8.01155 14.9593 6.03402C15.1648 5.70475 15.1909 5.35815 15.1902 5.08793C15.187 4.25674 15.1877 3.41784 15.1883 2.6059V1.8742H15.264V2.25931C15.2634 2.73363 15.2627 3.22401 15.2666 3.71053C15.2704 4.21694 15.6291 4.61104 16.1189 4.64827C16.5642 4.68228 16.9846 4.3665 17.0781 3.9294C17.1023 3.81515 17.1023 3.71181 17.1017 3.62837V3.59884C17.1017 3.34082 17.101 3.0828 17.1004 2.82478C17.0991 2.25353 17.0972 1.66303 17.1061 1.08087C17.1138 0.592426 16.9032 0.233633 16.4967 0.0430039L16.4096 0H2.57084L2.45889 0.0744544C2.44616 0.0827985 2.43344 0.0911425 2.41945 0.0994865C2.37429 0.127728 2.31831 0.16303 2.26043 0.21181C1.9621 0.46534 1.85206 0.818999 1.95765 1.18228C2.06642 1.55392 2.35457 1.80167 2.72859 1.84596ZM5.68386 4.78819V1.86714H13.3284V4.78819H5.68386ZM5.792 6.6611C6.72069 6.6656 7.66274 6.66495 8.57425 6.66495H10.4393C11.3514 6.6656 12.2941 6.66624 13.2241 6.6611C13.5389 7.87163 13.2737 9.11682 12.4887 10.0937C11.6796 11.1001 10.48 11.6207 9.19762 11.5205C8.05075 11.432 7.01329 10.8254 6.35175 9.85687C5.7074 8.91271 5.50576 7.75417 5.792 6.6611Z" fill="white"/>
<path d="M18.9319 18.3824C18.7723 17.0622 18.1273 15.8324 17.1159 14.919C16.1096 14.0108 14.826 13.4916 13.5029 13.4569C13.1238 13.446 12.8115 13.5712 12.5481 13.8401C11.886 14.5166 11.2149 15.1931 10.5648 15.8478C10.2391 16.1758 9.91344 16.5044 9.5884 16.833C9.56169 16.86 9.53497 16.8876 9.51016 16.9145C9.16222 16.5628 8.81364 16.2111 8.46507 15.8593C7.80163 15.1899 7.11592 14.498 6.4353 13.8074C6.19677 13.5654 5.91816 13.4505 5.57976 13.4563C4.59128 13.4749 3.68803 13.7271 2.89419 14.2053C0.625896 15.5712 -0.293889 17.6848 0.0814036 20.6668C0.25124 22.0172 1.43627 22.998 2.89928 22.9993C4.83935 23.0006 6.77943 23.0006 8.7195 23.0006L16.1198 22.9999C16.198 22.9999 16.268 22.9986 16.3335 22.9954C17.7049 22.9287 18.888 21.7945 18.9707 20.4672C19.0203 19.6854 19.007 19.0038 18.9319 18.3824ZM17.1413 20.2958C17.1095 20.7778 16.663 21.1418 16.1026 21.1424C14.6587 21.1443 13.2147 21.1437 11.7702 21.1437L9.51398 21.143H7.1967C5.77313 21.143 4.34957 21.143 2.92536 21.1424C2.38914 21.1418 1.97441 20.8619 1.91716 20.4608C1.66654 18.7175 1.91843 16.4421 4.54103 15.4999C4.69623 15.4441 4.87561 15.4126 5.06517 15.3792C5.15422 15.3638 5.24518 15.3478 5.33869 15.3279C6.27883 16.283 7.23741 17.2496 8.16547 18.1848L8.76149 18.7855C9.25764 19.2855 9.76269 19.2836 10.2627 18.7798L10.8752 18.1623C11.7963 17.2335 12.7491 16.2733 13.6823 15.3247C15.5486 15.5487 16.9352 16.9434 17.1343 18.7997C17.1795 19.222 17.182 19.6835 17.1413 20.2958Z" fill="white"/>
</svg>
