<svg width="19" height="19" viewBox="0 0 19 19" fill="none" xmlns="http://www.w3.org/2000/svg">
<g clip-path="url(#clip0_685_9783)">
<path d="M3.54883 8.57473C3.6267 8.57473 3.70399 8.57473 3.78186 8.57473C6.30512 8.57473 8.82838 8.57356 11.3516 8.57532C11.9421 8.5759 12.3523 8.97532 12.3413 9.52795C12.332 9.9993 11.9676 10.3911 11.5004 10.4291C11.4068 10.4367 11.3121 10.4356 11.218 10.4356C8.73831 10.4361 6.25863 10.4356 3.77895 10.4356C3.70166 10.4356 3.62495 10.4356 3.50117 10.4356C3.57265 10.518 3.60985 10.5671 3.65285 10.6104C3.98525 10.9467 4.32173 11.2782 4.65123 11.6174C5.04175 12.0198 5.05104 12.597 4.67912 12.9677C4.3072 13.3391 3.73188 13.3285 3.33613 12.9332C2.43132 12.028 1.52882 11.1203 0.629237 10.2098C0.199783 9.77532 0.202107 9.23204 0.633886 8.7952C1.52882 7.88994 2.42551 6.98701 3.32567 6.08701C3.73421 5.67883 4.30778 5.66596 4.68319 6.04549C5.05802 6.42503 5.04058 6.99579 4.63379 7.41216C4.26826 7.78585 3.89576 8.15251 3.52674 8.5221C3.53256 8.53965 3.54069 8.55719 3.54883 8.57473Z" fill="#DB0D4B"/>
<path d="M18.8495 14.0537C18.8506 10.6022 18.853 7.15077 18.8489 3.69931C18.8466 1.69872 17.3908 0.163636 15.4487 0.156034C13.746 0.149601 11.0234 0.146093 8.73842 0.145508C8.22645 0.145508 7.81152 0.563052 7.81152 1.07884V1.0841C7.81152 1.59931 8.22587 2.01744 8.73842 2.01744C11.0077 2.01744 13.7082 2.01802 15.3935 2.01919C16.3082 2.01978 16.991 2.70282 16.9922 3.62504C16.9963 7.54317 16.9963 11.4619 16.9922 15.3806C16.991 16.3016 16.3059 16.9829 15.3906 16.9835C13.7065 16.9847 11.0077 16.9853 8.73901 16.9853C8.22703 16.9853 7.8121 17.4028 7.8121 17.9186C7.8121 18.4338 8.22645 18.8514 8.73842 18.8519C11.006 18.8525 13.7036 18.8554 15.386 18.8508C17.2531 18.8455 18.7083 17.4812 18.8344 15.6075C18.8687 15.0917 18.8495 14.5718 18.8495 14.0537Z" fill="#DB0D4B"/>
</g>
<defs>
<clipPath id="clip0_685_9783">
<rect width="19" height="19" fill="white"/>
</clipPath>
</defs>
</svg>
    