<svg width="23" height="23" viewBox="0 0 23 23" fill="none" xmlns="http://www.w3.org/2000/svg">
<g clip-path="url(#clip0_512_741)">
<path d="M10.5945 5.99094C10.3228 5.64717 9.87196 5.51754 9.52397 5.68245C9.31422 5.78173 9.10205 5.96387 8.94132 6.18293C8.5644 6.69572 8.20758 7.21836 7.82905 7.77299C7.68037 7.99041 7.52928 8.21193 7.37418 8.43756L7.26167 8.60001L7.12665 8.45643C7.03101 8.3547 6.9394 8.25542 6.85019 8.15778C6.65972 7.95021 6.4797 7.75412 6.28923 7.57115C6.07305 7.36276 5.81829 7.25856 5.56835 7.25856C5.32404 7.25856 5.08455 7.35783 4.88765 7.55803C4.49546 7.95759 4.49868 8.55899 4.89568 8.98891C5.23965 9.3614 5.69613 9.84794 6.18315 10.314C6.55364 10.6684 7.01173 10.8382 7.47464 10.7931C7.94317 10.7472 8.36831 10.4871 8.67209 10.0596C8.85211 9.80609 9.03133 9.54436 9.20492 9.29084L9.3986 9.00778C9.51996 8.83056 9.64292 8.65416 9.76507 8.47776C10.0576 8.05605 10.3606 7.62038 10.6459 7.18472C10.9031 6.79336 10.8846 6.35769 10.5945 5.99094Z" fill="#280559"/>
<path d="M10.4643 12.8947C10.0858 12.5715 9.56663 12.5731 9.20016 12.898C9.09488 12.9916 9.00407 13.1171 8.91245 13.2484C8.53875 13.7841 8.16746 14.3223 7.78813 14.8704L7.28021 15.6056L6.87356 15.192C6.68229 14.9976 6.50146 14.8138 6.31903 14.6317C6.09481 14.4077 5.85773 14.2977 5.59976 14.2977C5.54028 14.2977 5.47921 14.3035 5.41652 14.3158C5.05166 14.3855 4.76555 14.6325 4.65143 14.9771C4.5349 15.3266 4.61768 15.7073 4.87164 15.9961C5.16578 16.33 5.48644 16.6533 5.79665 16.9651C5.8955 17.0652 5.99516 17.1644 6.0932 17.2645C6.49262 17.6715 6.97884 17.8725 7.46184 17.8306C7.94404 17.7888 8.38846 17.5066 8.71314 17.0373C9.23231 16.2882 9.74906 15.5366 10.265 14.7851L10.5455 14.3765C10.6042 14.2912 10.6508 14.2157 10.6893 14.1443C10.924 13.7119 10.8324 13.209 10.4643 12.8947Z" fill="#280559"/>
<path d="M17.253 14.8263C15.9656 14.8222 14.7014 14.8222 13.4943 14.8263C12.8578 14.8288 12.4118 15.2415 12.4102 15.8306C12.4086 16.4213 12.8506 16.8373 13.4863 16.8406C13.9122 16.843 14.3381 16.8422 14.7641 16.8422C14.9602 16.8422 15.1579 16.8422 15.3508 16.8414H15.9278C16.3666 16.8422 16.8054 16.8422 17.245 16.8406C17.5857 16.8389 17.8831 16.724 18.0824 16.5181C18.2568 16.3376 18.3484 16.098 18.346 15.8256C18.3404 15.2398 17.8911 14.828 17.253 14.8263Z" fill="#280559"/>
<path d="M22.0686 17.5236C21.4907 17.4949 21.072 17.9018 21.0246 18.5393C20.9097 20.0793 19.9059 21.036 18.4055 21.0368C13.6414 21.0393 8.99298 21.0393 4.59132 21.0368C3.029 21.036 1.97862 19.9669 1.97862 18.376C1.97701 11.6163 1.97701 11.4874 1.98183 4.7416V4.67269C1.98183 4.37814 2.01478 4.10985 2.07827 3.87684C2.40134 2.69701 3.31993 2.02095 4.59855 2.02095L18.4215 2.02177C18.7101 2.02177 18.9728 2.05541 19.2019 2.12023C20.3576 2.45005 21.0198 3.38784 21.0198 4.6932L21.0262 12.3333V12.4047C21.0254 12.4982 21.0254 12.586 21.0318 12.673C21.0535 12.9782 21.2054 13.2523 21.4473 13.4254C21.69 13.5985 21.9946 13.6502 22.2831 13.5665C22.7396 13.4344 23.0016 13.0463 23.0024 12.5024L22.996 4.589C22.9912 2.57066 21.8395 0.906766 19.9895 0.247115C19.7845 0.174094 19.5732 0.124046 19.3498 0.0715363C19.2525 0.0485633 19.1553 0.0255904 19.0588 0.000976562L4.49488 0.00425841C2.51787 0.00836072 0.888046 1.1849 0.241902 3.07361C0.170376 3.28282 0.121353 3.4986 0.0691149 3.72751C0.0466124 3.82597 0.0241099 3.92442 0 4.02288V19.0349C0.0385758 19.1702 0.0731332 19.3081 0.106887 19.4418C0.185646 19.7544 0.259583 20.0498 0.379328 20.3263C0.957161 21.6579 1.95692 22.5268 3.35047 22.9099C3.41958 22.9288 3.48468 22.9542 3.54736 22.9788C3.56585 22.9862 3.58353 22.9928 3.60201 23.0002H19.4012C19.4221 22.992 19.443 22.9837 19.4639 22.9755C19.533 22.9485 19.6037 22.9206 19.6801 22.9001C21.5759 22.4004 22.9397 20.6545 22.9968 18.6558C23.0145 18.029 22.6239 17.5523 22.0686 17.5236Z" fill="#280559"/>
<path d="M17.29 7.7891C16.6744 7.78582 16.0492 7.78418 15.4046 7.78418C14.7818 7.78418 14.1413 7.78582 13.4734 7.78828C12.8627 7.79074 12.415 8.21082 12.4102 8.78678C12.4078 9.06246 12.4994 9.30532 12.6754 9.48746C12.8691 9.68847 13.1544 9.80087 13.4783 9.80334C13.9155 9.80662 14.3599 9.8058 14.7906 9.80498C14.9843 9.80498 15.178 9.80416 15.3717 9.80416H17.2474H17.2924C17.9129 9.79431 18.346 9.37916 18.346 8.79581C18.3444 8.21656 17.9008 7.79238 17.29 7.7891Z" fill="#280559"/>
</g>
<defs>
<clipPath id="clip0_512_741">
<rect width="23" height="23" fill="white"/>
</clipPath>
</defs>
</svg>
