<svg width="23" height="23" viewBox="0 0 23 23" fill="none" xmlns="http://www.w3.org/2000/svg">
<path d="M13.7243 0C13.7521 0.0119979 13.7787 0.0293949 13.8072 0.0359937C14.6425 0.22976 15.1567 0.767267 15.2947 1.58972C15.3566 1.95866 15.4184 2.3276 15.484 2.69593C15.6387 3.56218 16.4852 4.0499 17.344 3.76255C17.7301 3.63357 18.1088 3.48359 18.4925 3.34682C19.4231 3.01568 20.3209 3.32342 20.8215 4.15548C21.4588 5.21489 22.0912 6.27671 22.7186 7.34152C23.208 8.17178 23.0447 9.06862 22.2966 9.68532C21.9847 9.94267 21.6624 10.1868 21.3511 10.4442C20.6451 11.0291 20.6464 11.9661 21.3548 12.5522C21.6717 12.8144 22.0008 13.0633 22.3176 13.3261C23.0342 13.9212 23.2056 14.821 22.739 15.6171C22.0992 16.7095 21.452 17.7977 20.7949 18.8805C20.324 19.6562 19.4299 19.9633 18.5525 19.667C18.1596 19.5344 17.7741 19.3814 17.3824 19.2447C16.4877 18.9327 15.6418 19.4144 15.4803 20.3239C15.4055 20.7438 15.3423 21.1661 15.2532 21.583C15.08 22.3911 14.3554 22.982 13.5046 22.9892C12.1687 23.0012 10.8328 23.0018 9.49689 22.9892C8.58175 22.9802 7.86274 22.3299 7.70682 21.4079C7.64432 21.0389 7.58245 20.67 7.51748 20.3017C7.3634 19.433 6.51941 18.9423 5.66181 19.2291C5.2757 19.358 4.89702 19.5074 4.51339 19.6436C3.57906 19.9753 2.68247 19.6706 2.18313 18.8409C1.54085 17.7767 0.903529 16.7089 0.272392 15.6375C-0.208387 14.821 -0.0394645 13.9218 0.699956 13.3123C1.01181 13.0555 1.33419 12.8108 1.64542 12.5534C2.35329 11.9691 2.35453 11.0273 1.64914 10.4448C1.33171 10.1826 1.00315 9.93367 0.686343 9.67092C-0.0326581 9.07462 -0.20653 8.17538 0.258779 7.38112C0.898579 6.28871 1.54642 5.2005 2.20231 4.11708C2.6769 3.33362 3.57906 3.02647 4.4645 3.33122C4.84937 3.4638 5.22806 3.61257 5.61231 3.74695C6.50766 4.06009 7.35784 3.58018 7.51871 2.67374C7.58306 2.3126 7.64494 1.95146 7.70496 1.58972C7.84233 0.767267 8.35528 0.23096 9.19246 0.0359937C9.22155 0.0293949 9.24815 0.0119979 9.276 0C10.7592 0 12.2417 0 13.7243 0ZM1.85952 8.28216C2.18746 8.54431 2.49746 8.79087 2.80684 9.03863C4.44099 10.3464 4.4379 12.6524 2.80065 13.962C2.49127 14.2091 2.18189 14.4563 1.87746 14.6998C1.88241 14.7256 1.88117 14.7424 1.88798 14.7538C2.50365 15.7905 3.12117 16.8259 3.73436 17.8643C3.795 17.9669 3.85379 17.9711 3.95774 17.9315C4.31662 17.7947 4.67798 17.6645 5.04057 17.5385C6.92965 16.8805 8.96476 18.0101 9.32735 19.9177C9.40779 20.3413 9.47957 20.7666 9.55506 21.1883C10.8662 21.1883 12.1532 21.1883 13.4502 21.1883C13.5127 20.826 13.5782 20.4726 13.6333 20.1187C13.9278 18.2236 15.695 17.0094 17.5804 17.4372C18.0723 17.5487 18.5432 17.7509 19.0184 17.9255C19.1576 17.9765 19.2201 17.9537 19.2894 17.8295C19.4775 17.4948 19.6805 17.1678 19.8772 16.8379C20.2968 16.133 20.7163 15.4275 21.1408 14.7136C20.8283 14.4635 20.5257 14.2205 20.2219 13.9788C18.5488 12.6464 18.5512 10.347 20.2275 9.01403C20.5307 8.77287 20.8326 8.53052 21.142 8.28276C20.5096 7.22155 19.8834 6.17413 19.2628 5.12371C19.1972 5.01273 19.1304 5.03432 19.0351 5.06912C18.6385 5.21429 18.2443 5.36727 17.8415 5.49384C15.9945 6.07394 14.0244 4.93534 13.676 3.09126C13.5956 2.66594 13.5238 2.23881 13.4471 1.80629C12.1471 1.80629 10.8594 1.80629 9.55258 1.80629C9.49071 2.16142 9.42388 2.51296 9.36943 2.8663C9.0452 4.97494 6.98225 6.15973 4.92301 5.41706C4.59816 5.30008 4.27516 5.1771 3.94598 5.07032C3.89029 5.05232 3.77458 5.08172 3.7486 5.12431C3.11746 6.16753 2.49437 7.21675 1.85952 8.28216Z" fill="#280559"/>
<path d="M11.3521 15.9284C8.78552 15.803 6.81043 13.7405 6.92676 11.3374C7.04618 8.867 9.16049 6.97073 11.6591 7.07331C14.2176 7.17829 16.1834 9.25093 16.0733 11.6463C15.9601 14.1047 13.8693 15.9968 11.3521 15.9284ZM11.4957 8.8592C10.0113 8.8628 8.7849 10.0506 8.77872 11.4897C8.77315 12.9331 10.015 14.1395 11.5037 14.1353C12.9882 14.1317 14.2145 12.9439 14.2207 11.5041C14.2275 10.0602 12.9863 8.8562 11.4957 8.8592Z" fill="#280559"/>
</svg>
