<svg width="23" height="23" viewBox="0 0 23 23" fill="none" xmlns="http://www.w3.org/2000/svg">
<path d="M17 5L12.1875 10.25L9.4375 7.25L6 11" stroke="white" stroke-width="2" stroke-linecap="round" stroke-linejoin="round"/>
<path d="M11.5 13.6C11.195 13.6 10.9025 13.7212 10.6868 13.9368C10.4712 14.1525 10.35 14.445 10.35 14.75V17.25C10.35 17.555 10.4712 17.8475 10.6868 18.0632C10.9025 18.2788 11.195 18.4 11.5 18.4C11.805 18.4 12.0975 18.2788 12.3132 18.0632C12.5288 17.8475 12.65 17.555 12.65 17.25V14.75C12.65 14.445 12.5288 14.1525 12.3132 13.9368C12.0975 13.7212 11.805 13.6 11.5 13.6ZM5.75 14.5C5.445 14.5 5.15249 14.6212 4.93683 14.8368C4.72116 15.0525 4.6 15.345 4.6 15.65V17.25C4.6 17.555 4.72116 17.8475 4.93683 18.0632C5.15249 18.2788 5.445 18.4 5.75 18.4C6.055 18.4 6.34751 18.2788 6.56317 18.0632C6.77884 17.8475 6.9 17.555 6.9 17.25V15.65C6.9 15.345 6.77884 15.0525 6.56317 14.8368C6.34751 14.6212 6.055 14.5 5.75 14.5ZM17.25 11.2C16.945 11.2 16.6525 11.3212 16.4368 11.5368C16.2212 11.7525 16.1 12.045 16.1 12.35V17.25C16.1 17.555 16.2212 17.8475 16.4368 18.0632C16.6525 18.2788 16.945 18.4 17.25 18.4C17.555 18.4 17.8475 18.2788 18.0632 18.0632C18.2788 17.8475 18.4 17.555 18.4 17.25V12.35C18.4 12.045 18.2788 11.7525 18.0632 11.5368C17.8475 11.3212 17.555 11.2 17.25 11.2ZM19.55 0H3.45C2.535 0 1.65748 0.363481 1.01048 1.01048C0.363481 1.65748 0 2.535 0 3.45V19.55C0 20.465 0.363481 21.3425 1.01048 21.9895C1.65748 22.6365 2.535 23 3.45 23H19.55C20.465 23 21.3425 22.6365 21.9895 21.9895C22.6365 21.3425 23 20.465 23 19.55V3.45C23 2.535 22.6365 1.65748 21.9895 1.01048C21.3425 0.363481 20.465 0 19.55 0ZM20.7 19.55C20.7 19.855 20.5788 20.1475 20.3632 20.3632C20.1475 20.5788 19.855 20.7 19.55 20.7H3.45C3.145 20.7 2.85249 20.5788 2.63683 20.3632C2.42116 20.1475 2.3 19.855 2.3 19.55V3.45C2.3 3.145 2.42116 2.85249 2.63683 2.63683C2.85249 2.42116 3.145 2.3 3.45 2.3H19.55C19.855 2.3 20.1475 2.42116 20.3632 2.63683C20.5788 2.85249 20.7 3.145 20.7 3.45V19.55Z" fill="white"/>
</svg>
