<svg width="25" height="25" viewBox="0 0 25 25" fill="none" xmlns="http://www.w3.org/2000/svg">
<path d="M1.52539 4.4502V11.3502C1.52539 11.3502 1.52539 14.8002 9.57541 14.8002C10.2562 14.8002 10.8807 14.7761 11.4511 14.7312M17.6254 4.4502V11.3502" stroke="#280559" stroke-width="1.6" stroke-linecap="round" stroke-linejoin="round"/>
<path d="M9.57541 21.7001C1.52539 21.7001 1.52539 18.25 1.52539 18.25V11.35M22.9913 17.8671C22.2806 16.0616 20.6545 14.8 18.7639 14.8C16.7422 14.8 15.0241 16.2433 14.402 18.25M9.57541 1C17.6254 1 17.6254 4.45001 17.6254 4.45001C17.6254 4.45001 17.6254 7.90002 9.57541 7.90002C1.52539 7.90002 1.52539 4.45001 1.52539 4.45001C1.52539 4.45001 1.52539 1 9.57541 1Z" stroke="#280559" stroke-width="1.6" stroke-linecap="round" stroke-linejoin="round"/>
<path d="M21.0697 17.8668H22.9914C23.2041 17.8668 23.3755 17.6943 23.3755 17.4827V15.3115M14.5596 20.9327C15.2703 22.7382 16.8964 23.9998 18.787 23.9998C20.8087 23.9998 22.5268 22.5565 23.1489 20.5498" stroke="#280559" stroke-width="1.6" stroke-linecap="round" stroke-linejoin="round"/>
<path d="M16.4815 20.9326H14.5599C14.458 20.9326 14.3603 20.9731 14.2883 21.0451C14.2162 21.1172 14.1758 21.2148 14.1758 21.3167V23.4879" stroke="#280559" stroke-width="1.6" stroke-linecap="round" stroke-linejoin="round"/>
</svg>
