<svg width="25" height="25" viewBox="0 0 25 25" fill="none" xmlns="http://www.w3.org/2000/svg">
<path d="M1.5249 4.4502V11.3502C1.5249 11.3502 1.5249 14.8002 9.57492 14.8002C10.2557 14.8002 10.8802 14.7761 11.4506 14.7312M17.6249 4.4502V11.3502" stroke="white" stroke-width="1.6" stroke-linecap="round" stroke-linejoin="round"/>
<path d="M9.57492 21.7001C1.5249 21.7001 1.5249 18.25 1.5249 18.25V11.35M22.9909 17.8671C22.2802 16.0616 20.6541 14.8 18.7634 14.8C16.7417 14.8 15.0236 16.2433 14.4015 18.25M9.57492 1C17.6249 1 17.6249 4.45001 17.6249 4.45001C17.6249 4.45001 17.6249 7.90002 9.57492 7.90002C1.5249 7.90002 1.5249 4.45001 1.5249 4.45001C1.5249 4.45001 1.5249 1 9.57492 1Z" stroke="white" stroke-width="1.6" stroke-linecap="round" stroke-linejoin="round"/>
<path d="M21.0693 17.8668H22.9909C23.2037 17.8668 23.375 17.6943 23.375 17.4827V15.3115M14.5591 20.9327C15.2698 22.7382 16.8959 23.9998 18.7865 23.9998C20.8082 23.9998 22.5263 22.5565 23.1485 20.5498" stroke="white" stroke-width="1.6" stroke-linecap="round" stroke-linejoin="round"/>
<path d="M16.4806 20.9326H14.5589C14.457 20.9326 14.3593 20.9731 14.2873 21.0451C14.2153 21.1172 14.1748 21.2148 14.1748 21.3167V23.4879" stroke="white" stroke-width="1.6" stroke-linecap="round" stroke-linejoin="round"/>
</svg>
