<svg width="20" height="18" viewBox="0 0 20 18" fill="none" xmlns="http://www.w3.org/2000/svg">
<path d="M20 6.76366C20.0004 6.48345 19.9289 6.20812 19.7928 5.96567C19.6567 5.72322 19.4608 5.5223 19.2251 5.38333L10.8012 0.223238C10.5584 0.0770378 10.2824 0 10.0013 0C9.72025 0 9.44422 0.0770378 9.20144 0.223238L0.765064 5.38333C0.531934 5.52611 0.33881 5.72905 0.204673 5.97219C0.0705351 6.21533 0 6.49031 0 6.77011C0 7.04991 0.0705351 7.32489 0.204673 7.56803C0.33881 7.81117 0.531934 8.01411 0.765064 8.15689L3.16474 9.60171V13.2267C3.16619 13.51 3.23823 13.7881 3.37394 14.0344C3.50965 14.2807 3.70446 14.4867 3.93964 14.6328L9.25143 17.7934C9.4886 17.9289 9.75524 18 10.0263 18C10.2974 18 10.5641 17.9289 10.8012 17.7934L16.113 14.6328C16.3482 14.4867 16.543 14.2807 16.6787 14.0344C16.8144 13.7881 16.8865 13.51 16.8879 13.2267V9.56301L18.4377 8.62129V12.1302H20V6.76366ZM15.3381 13.2138L10.0013 16.3872L4.72703 13.2267V10.5563L9.20144 13.3041C9.44504 13.4478 9.72076 13.5233 10.0013 13.5233C10.2819 13.5233 10.5576 13.4478 10.8012 13.3041L15.3256 10.5176L15.3381 13.2138ZM10.0013 11.9109L1.56496 6.75076L10.0013 1.57776L18.4377 6.73786L10.0013 11.9109Z" fill="white"/>
</svg>
