<svg width="18" height="18" viewBox="0 0 18 18" fill="none" xmlns="http://www.w3.org/2000/svg">
<circle cx="9" cy="9" r="9" fill="#FFF3F3"/>
<path d="M12.911 5.78832H11.7865C11.7715 5.7831 11.7559 5.77972 11.74 5.77816H10.5427V4.78516C10.5428 4.71054 10.5135 4.63889 10.4614 4.58559C10.4092 4.5323 10.3382 4.50156 10.2637 4.5H7.43207C7.35643 4.5 7.2839 4.53 7.23047 4.5835C7.17698 4.63699 7.14691 4.70952 7.14691 4.78516V5.77816H5.95569C5.93985 5.77972 5.92421 5.7831 5.90917 5.78832H4.78467C4.68275 5.78832 4.58862 5.84263 4.5377 5.93086C4.48678 6.0191 4.48678 6.12778 4.5377 6.21601C4.58863 6.30425 4.68275 6.35863 4.78467 6.35863H5.70082L6.4411 13.2452C6.44902 13.3153 6.48247 13.3799 6.53509 13.427C6.58764 13.474 6.65569 13.4999 6.72625 13.5H10.9735C11.0433 13.499 11.1103 13.4725 11.1621 13.4256C11.2139 13.3787 11.2467 13.3146 11.2546 13.2452L11.9948 6.36868H12.911C13.0129 6.36868 13.107 6.31437 13.158 6.22613C13.2089 6.1379 13.2089 6.02915 13.158 5.94098C13.107 5.85275 13.0129 5.79837 12.911 5.79837L12.911 5.78832ZM7.72337 5.07031H9.97232V5.77816H7.72337V5.07031ZM10.7146 12.9256H6.98106L6.27322 6.36875H11.4224L10.7146 12.9256Z" fill="#E41D1D"/>
<path d="M8.84814 12.2572C8.92378 12.2572 8.99631 12.2271 9.04981 12.1737C9.1033 12.1202 9.1333 12.0477 9.1333 11.972V7.32036C9.1333 7.21845 9.07899 7.12431 8.99076 7.0734C8.90252 7.02241 8.79377 7.02241 8.70553 7.0734C8.6173 7.12432 8.56299 7.21845 8.56299 7.32036V11.972C8.56299 12.0477 8.59299 12.1202 8.64648 12.1737C8.69998 12.2271 8.7725 12.2572 8.84815 12.2572H8.84814Z" fill="#E41D1D"/>
<path d="M7.72533 12.2558H7.73746C7.81276 12.2526 7.88372 12.2198 7.93492 12.1645C7.98605 12.1091 8.01327 12.0358 8.0105 11.9605L7.83856 7.30885L7.83863 7.30878C7.83707 7.2326 7.8045 7.16028 7.74836 7.10868C7.69216 7.05714 7.6174 7.0308 7.54129 7.03575C7.46599 7.03893 7.39502 7.07177 7.34389 7.1271C7.2927 7.18242 7.26554 7.25576 7.26825 7.33107L7.44019 11.9827C7.44377 12.0561 7.47533 12.1253 7.52842 12.176C7.58144 12.2268 7.65194 12.2553 7.72533 12.2558L7.72533 12.2558Z" fill="#E41D1D"/>
<path d="M9.95952 12.2567H9.96961C10.0448 12.2584 10.1176 12.2305 10.1724 12.1791C10.2272 12.1276 10.2597 12.0567 10.2629 11.9816L10.4348 7.32997H10.4348C10.4375 7.25467 10.4103 7.18133 10.3592 7.126C10.308 7.07068 10.237 7.03783 10.1617 7.03465C10.0847 7.02673 10.0079 7.05158 9.95017 7.10318C9.8924 7.15471 9.85909 7.22825 9.85834 7.30573L9.68438 11.9574H9.68445C9.68059 12.0337 9.70754 12.1084 9.75927 12.1647C9.81094 12.2209 9.88313 12.2541 9.95952 12.2567L9.95952 12.2567Z" fill="#E41D1D"/>
</svg>
