<svg width="25" height="25" viewBox="0 0 25 25" fill="none" xmlns="http://www.w3.org/2000/svg">
<path d="M6.77116 20.8334C5.1913 20.8334 3.84164 20.2865 2.7222 19.1927C1.60206 18.099 1.04199 16.7622 1.04199 15.1823C1.04199 13.8282 1.44998 12.6216 2.26595 11.5625C3.08192 10.5035 4.14963 9.82643 5.46908 9.53129C5.76421 8.28129 6.50206 7.09205 7.68262 5.96358C8.86317 4.83511 10.1219 4.27087 11.4587 4.27087C12.0316 4.27087 12.5222 4.47469 12.9305 4.88233C13.3382 5.29067 13.542 5.78129 13.542 6.35421V12.6563L15.2087 11.0417L16.667 12.5L12.5003 16.6667L8.33366 12.5L9.79199 11.0417L11.4587 12.6563V6.35421C10.1392 6.59726 9.11491 7.23511 8.38574 8.26775C7.65658 9.30108 7.29199 10.3646 7.29199 11.4584H6.77116C5.76421 11.4584 4.90484 11.8143 4.19303 12.5261C3.48123 13.2379 3.12533 14.0973 3.12533 15.1042C3.12533 16.1112 3.48123 16.9705 4.19303 17.6823C4.90484 18.3941 5.76421 18.75 6.77116 18.75H19.2712C20.0003 18.75 20.6166 18.4983 21.1201 17.9948C21.6236 17.4914 21.8753 16.875 21.8753 16.1459C21.8753 15.4167 21.6236 14.8004 21.1201 14.2969C20.6166 13.7934 20.0003 13.5417 19.2712 13.5417H17.7087V11.4584C17.7087 10.625 17.5177 9.84796 17.1357 9.12712C16.7538 8.40699 16.2503 7.79518 15.6253 7.29171V4.86983C16.91 5.47747 17.9257 6.37608 18.6722 7.56567C19.4187 8.75456 19.792 10.0521 19.792 11.4584C20.9899 11.5973 21.984 12.1136 22.7743 13.0073C23.5639 13.9018 23.9587 14.948 23.9587 16.1459C23.9587 17.448 23.5031 18.5549 22.592 19.4667C21.6802 20.3778 20.5732 20.8334 19.2712 20.8334H6.77116Z" fill="white"/>
</svg>
