<svg width="21" height="22" viewBox="0 0 21 22" fill="none" xmlns="http://www.w3.org/2000/svg">
<path d="M10.6434 14.6487C10.7793 14.6487 10.9067 14.6273 11.0256 14.5845C11.1445 14.5424 11.2549 14.4704 11.3569 14.3684L14.0071 11.7182C14.194 11.5313 14.2874 11.2935 14.2874 11.0047C14.2874 10.7159 14.194 10.478 14.0071 10.2912C13.8202 10.1043 13.5824 10.0109 13.2936 10.0109C13.0048 10.0109 12.7669 10.1043 12.5801 10.2912L11.6627 11.2086V7.94674C11.6627 7.65793 11.5652 7.41567 11.3701 7.21997C11.1744 7.02494 10.9322 6.92742 10.6434 6.92742C10.3546 6.92742 10.1126 7.02494 9.91761 7.21997C9.7219 7.41567 9.62404 7.65793 9.62404 7.94674V11.2086L8.70666 10.2912C8.51978 10.1043 8.28194 10.0109 7.99314 10.0109C7.70433 10.0109 7.46649 10.1043 7.27962 10.2912C7.09274 10.478 6.9993 10.7159 6.9993 11.0047C6.9993 11.2935 7.09274 11.5313 7.27962 11.7182L9.92984 14.3684C10.0318 14.4704 10.1422 14.5424 10.2611 14.5845C10.38 14.6273 10.5075 14.6487 10.6434 14.6487ZM10.6434 21.1979C9.2333 21.1979 7.90819 20.9301 6.66803 20.3946C5.42786 19.8598 4.34908 19.1337 3.4317 18.2164C2.51431 17.299 1.78822 16.2202 1.25342 14.98C0.717936 13.7399 0.450195 12.4147 0.450195 11.0047C0.450195 9.59463 0.717936 8.26952 1.25342 7.02935C1.78822 5.78919 2.51431 4.71041 3.4317 3.79302C4.34908 2.87564 5.42786 2.14921 6.66803 1.61373C7.90819 1.07892 9.2333 0.811523 10.6434 0.811523C12.0534 0.811523 13.3785 1.07892 14.6187 1.61373C15.8589 2.14921 16.9376 2.87564 17.855 3.79302C18.7724 4.71041 19.4985 5.78919 20.0333 7.02935C20.5688 8.26952 20.8365 9.59463 20.8365 11.0047C20.8365 12.4147 20.5688 13.7399 20.0333 14.98C19.4985 16.2202 18.7724 17.299 17.855 18.2164C16.9376 19.1337 15.8589 19.8598 14.6187 20.3946C13.3785 20.9301 12.0534 21.1979 10.6434 21.1979ZM10.6434 19.1592C12.9028 19.1592 14.827 18.3652 16.4157 16.7771C18.0038 15.1883 18.7979 13.2642 18.7979 11.0047C18.7979 8.7452 18.0038 6.82107 16.4157 5.2323C14.827 3.6442 12.9028 2.85016 10.6434 2.85016C8.38387 2.85016 6.46008 3.6442 4.87199 5.2323C3.28322 6.82107 2.48883 8.7452 2.48883 11.0047C2.48883 13.2642 3.28322 15.1883 4.87199 16.7771C6.46008 18.3652 8.38387 19.1592 10.6434 19.1592Z" fill="#280559"/>
</svg>
