<svg width="18" height="18" viewBox="0 0 18 18" fill="none" xmlns="http://www.w3.org/2000/svg">
<path d="M9 18C6.61312 18 4.32373 17.0517 2.63605 15.364C0.948263 13.676 0 11.3869 0 9C0 6.61312 0.948263 4.32373 2.63605 2.63605C4.32397 0.948263 6.61312 0 9 0C11.3869 0 13.6763 0.948263 15.364 2.63605C17.0517 4.32397 18 6.61312 18 9C17.9971 11.3861 17.0481 13.6738 15.3608 15.3608C13.6736 17.048 11.3858 17.9971 9 18ZM12.4707 6.68522V6.68508C12.6285 6.53263 12.7185 6.32321 12.7204 6.10377C12.7224 5.88434 12.6361 5.67328 12.4809 5.51808C12.3257 5.36288 12.1146 5.2766 11.8952 5.27852C11.6758 5.28043 11.4663 5.37043 11.3139 5.52822L9 7.84293L6.68613 5.52822C6.47834 5.32755 6.18014 5.25126 5.90141 5.32769C5.62281 5.40412 5.40517 5.62177 5.32873 5.90037C5.2523 6.17911 5.32859 6.4773 5.52926 6.68509L7.84313 8.9998L5.52926 11.3145C5.37147 11.467 5.28148 11.6764 5.27956 11.8958C5.27764 12.1153 5.36393 12.3263 5.51912 12.4815C5.67431 12.6367 5.88538 12.723 6.10481 12.7211C6.32424 12.7192 6.53366 12.6292 6.68612 12.4714L8.99999 10.1567L11.3139 12.4714C11.4663 12.6292 11.6757 12.7192 11.8952 12.7211C12.1146 12.723 12.3257 12.6367 12.4809 12.4815C12.6361 12.3263 12.7223 12.1153 12.7204 11.8958C12.7185 11.6764 12.6285 11.467 12.4707 11.3145L10.1569 8.9998L12.4707 6.68522Z" fill="#E6E6E6"/>
</svg>
