<svg width="24" height="28" viewBox="0 0 24 28" fill="none" xmlns="http://www.w3.org/2000/svg">
<path d="M15.9 0H1.8C0.8 0 0 0.9 0 1.9V26.1C0 27.1 0.8 28 1.8 28H22.1C23.1 28 23.9 27.1 23.9 26.1V7.9L15.9 0ZM12 20C12 21.7 10.7 23 9 23C7.3 23 6 21.7 6 20V16H12V20ZM11.2 8C11.8 8 12.2 8.4 12.2 9C12.2 9.6 11.8 10 11.2 10H9V12H11.2C11.8 12 12.2 12.4 12.2 13C12.2 13.6 11.8 14 11.2 14H9V12H6.8C6.2 12 5.8 11.6 5.8 11C5.8 10.4 6.2 10 6.8 10H9V8H6.8C6.2 8 5.8 7.6 5.8 7C5.8 6.4 6.2 6 6.8 6H9V4H11.2C11.8 4 12.2 4.4 12.2 5C12.2 5.6 11.8 6 11.2 6H9V8H11.2ZM15.9 8V2.5L21.6 8H15.9Z" fill="#92929D"/>
</svg>
