<svg width="20" height="14" viewBox="0 0 20 14" fill="none" xmlns="http://www.w3.org/2000/svg">
<path d="M8.89965 13.14H10.9383C11.4989 13.14 11.9576 12.6813 11.9576 12.1207C11.9576 11.5601 11.4989 11.1014 10.9383 11.1014H8.89965C8.33902 11.1014 7.88033 11.5601 7.88033 12.1207C7.88033 12.6813 8.33902 13.14 8.89965 13.14ZM0.745117 1.92752C0.745117 2.48814 1.20381 2.94684 1.76443 2.94684H18.0735C18.6341 2.94684 19.0928 2.48814 19.0928 1.92752C19.0928 1.3669 18.6341 0.908203 18.0735 0.908203H1.76443C1.20381 0.908203 0.745117 1.3669 0.745117 1.92752ZM4.82238 8.04342H15.0155C15.5762 8.04342 16.0349 7.58473 16.0349 7.0241C16.0349 6.46348 15.5762 6.00479 15.0155 6.00479H4.82238C4.26176 6.00479 3.80307 6.46348 3.80307 7.0241C3.80307 7.58473 4.26176 8.04342 4.82238 8.04342Z" fill="#280559"/>
</svg>
