<svg width="21" height="19" viewBox="0 0 21 19" fill="none" xmlns="http://www.w3.org/2000/svg">
<path d="M5.53333 15.7333H2.13333C1.83275 15.7333 1.54449 15.6139 1.33195 15.4014C1.1194 15.1888 1 14.9006 1 14.6V8.93333C1 8.33218 1.23881 7.75564 1.66389 7.33056C2.08897 6.90548 2.66551 6.66667 3.26667 6.66667H16.8667C17.4678 6.66667 18.0444 6.90548 18.4694 7.33056C18.8945 7.75564 19.1333 8.33218 19.1333 8.93333V14.6C19.1333 14.9006 19.0139 15.1888 18.8014 15.4014C18.5888 15.6139 18.3006 15.7333 18 15.7333H14.6M5.53333 1H14.6V6.66667H5.53333V1ZM5.53333 13.4667H14.6V18H5.53333V13.4667Z" stroke="white" stroke-width="2" stroke-linejoin="round"/>
</svg>
