<svg width="39" height="39" viewBox="0 0 39 39" fill="none" xmlns="http://www.w3.org/2000/svg">
<path d="M19.5 1.86603C19.5 0.83545 20.3374 -0.00925928 21.3632 0.0892093C24.4595 0.386405 27.4494 1.42115 30.0776 3.11818C33.23 5.15366 35.7282 8.05548 37.2724 11.4755C38.8166 14.8955 39.3412 18.6884 38.7833 22.3991C38.2254 26.1099 36.6087 29.5808 34.1272 32.3956C31.6456 35.2103 28.4047 37.2493 24.7931 38.2679C21.1815 39.2864 17.3528 39.2413 13.7662 38.138C10.1797 37.0346 6.98761 34.9198 4.57308 32.0474C2.56003 29.6526 1.15871 26.8159 0.475795 23.7814C0.249528 22.7759 0.982625 21.8393 2.00508 21.7101C3.02753 21.581 3.95016 22.3094 4.19914 23.3095C4.77743 25.6322 5.87922 27.8012 7.4299 29.646C9.38233 31.9687 11.9634 33.6787 14.8636 34.5709C17.7637 35.4631 20.8597 35.4996 23.7801 34.6759C26.7004 33.8523 29.3211 32.2036 31.3277 29.9275C33.3343 27.6515 34.6416 24.8448 35.0927 21.8443C35.5438 18.8437 35.1196 15.7767 33.871 13.0113C32.6223 10.2458 30.6023 7.89937 28.0532 6.25345C26.0286 4.9462 23.7386 4.12496 21.3617 3.84234C20.3384 3.72066 19.5 2.89661 19.5 1.86603Z" fill="#DB0D4B"/>
</svg>
