<svg width="20" height="20" viewBox="0 0 20 20" fill="none" xmlns="http://www.w3.org/2000/svg">
<path fill-rule="evenodd" clip-rule="evenodd" d="M9.14645 0.830566C7.84497 0.830677 6.56239 1.14201 5.40571 1.7386C4.24904 2.33518 3.2518 3.19972 2.49722 4.26007C1.74263 5.32043 1.25257 6.54586 1.06792 7.83412C0.883265 9.12238 1.00938 10.4361 1.43574 11.6657C1.8621 12.8953 2.57635 14.0052 3.51888 14.9026C4.46142 15.8001 5.60491 16.4591 6.85396 16.8248C8.10301 17.1904 9.4214 17.2521 10.6991 17.0046C11.9769 16.7572 13.1769 16.2077 14.1991 15.4022L17.7058 18.9087C17.8869 19.0836 18.1294 19.1804 18.3812 19.1782C18.6329 19.176 18.8738 19.0751 19.0518 18.897C19.2298 18.719 19.3308 18.4782 19.333 18.2264C19.3352 17.9747 19.2384 17.7321 19.0635 17.551L15.5568 14.0445C16.5055 12.841 17.0962 11.3948 17.2613 9.87131C17.4264 8.34782 17.1592 6.80863 16.4904 5.42989C15.8215 4.05115 14.778 2.88856 13.4792 2.07517C12.1804 1.26179 10.6789 0.830464 9.14645 0.830566ZM2.90508 8.99205C2.90508 7.3368 3.56265 5.74934 4.73313 4.5789C5.90362 3.40846 7.49114 2.75092 9.14645 2.75092C10.8018 2.75092 12.3893 3.40846 13.5598 4.5789C14.7302 5.74934 15.3878 7.3368 15.3878 8.99205C15.3878 10.6473 14.7302 12.2348 13.5598 13.4052C12.3893 14.5756 10.8018 15.2332 9.14645 15.2332C7.49114 15.2332 5.90362 14.5756 4.73313 13.4052C3.56265 12.2348 2.90508 10.6473 2.90508 8.99205Z" fill="#280559"/>
</svg>
