<svg width="150" height="150" viewBox="0 0 150 150" fill="none" xmlns="http://www.w3.org/2000/svg">
<rect width="150" height="150" rx="15" fill="white"/>
<rect x="1" y="1" width="148" height="148" rx="14" stroke="#CBD2DC" stroke-opacity="0.5" stroke-width="2"/>
<path d="M65.5556 97.4444H84.4444C84.8222 97.4444 85.1056 97.2713 85.2944 96.925C85.4833 96.5787 85.4519 96.2481 85.2 95.9333L80.0056 88.9917C79.8167 88.7398 79.5648 88.6139 79.25 88.6139C78.9352 88.6139 78.6833 88.7398 78.4944 88.9917L73.5833 95.5556L70.0889 90.8806C69.9 90.6287 69.6481 90.5028 69.3333 90.5028C69.0185 90.5028 68.7667 90.6287 68.5778 90.8806L64.8 95.9333C64.5481 96.2481 64.5167 96.5787 64.7056 96.925C64.8944 97.2713 65.1778 97.4444 65.5556 97.4444ZM61.7778 105C60.7389 105 59.8492 104.63 59.1088 103.891C58.3696 103.151 58 102.261 58 101.222V74.7778C58 73.7389 58.3696 72.8492 59.1088 72.1088C59.8492 71.3696 60.7389 71 61.7778 71H88.2222C89.2611 71 90.1508 71.3696 90.8912 72.1088C91.6304 72.8492 92 73.7389 92 74.7778V101.222C92 102.261 91.6304 103.151 90.8912 103.891C90.1508 104.63 89.2611 105 88.2222 105H61.7778Z" fill="#D9D9D9"/>
</svg>
