<svg width="24" height="16" viewBox="0 0 24 16" fill="none" xmlns="http://www.w3.org/2000/svg">
<path d="M19.35 6.04C19.0141 4.33772 18.0976 2.80486 16.7571 1.70325C15.4165 0.601633 13.7351 -0.000392242 12 1.91737e-07C9.11 1.91737e-07 6.6 1.64 5.35 4.04C3.88023 4.19883 2.52101 4.89521 1.53349 5.99532C0.545971 7.09543 -0.000171702 8.52168 4.04928e-08 10C4.04928e-08 13.31 2.69 16 6 16H19C21.76 16 24 13.76 24 11C24 8.36 21.95 6.22 19.35 6.04ZM19 14H6C3.79 14 2 12.21 2 10C2 7.95 3.53 6.24 5.56 6.03L6.63 5.92L7.13 4.97C7.58988 4.07478 8.28787 3.32382 9.14712 2.79979C10.0064 2.27577 10.9936 1.99902 12 2C14.62 2 16.88 3.86 17.39 6.43L17.69 7.93L19.22 8.04C19.9717 8.09056 20.6764 8.42399 21.1922 8.97319C21.708 9.52238 21.9966 10.2466 22 11C22 12.65 20.65 14 19 14ZM8 9H10.55V12H13.45V9H16L12 5L8 9Z" fill="white"/>
</svg>
