<svg width="700" height="436" viewBox="0 0 700 436" fill="none" xmlns="http://www.w3.org/2000/svg">
<rect width="700" height="436" rx="15" fill="#F8F8FF"/>
<rect x="0.5" y="0.5" width="699" height="435" rx="14.5" stroke="#384EB7" stroke-opacity="0.3" stroke-dasharray="5 5"/>
<path d="M245.896 253V241.72H249.992C251.283 241.72 252.371 241.944 253.256 242.392C254.152 242.829 254.83 243.469 255.288 244.312C255.747 245.144 255.976 246.157 255.976 247.352C255.976 248.536 255.747 249.549 255.288 250.392C254.83 251.235 254.152 251.88 253.256 252.328C252.371 252.776 251.283 253 249.992 253H245.896ZM247.96 251.288H249.864C251.23 251.288 252.243 250.963 252.904 250.312C253.566 249.661 253.896 248.675 253.896 247.352C253.896 246.019 253.566 245.032 252.904 244.392C252.243 243.741 251.23 243.416 249.864 243.416H247.96V251.288ZM257.908 253V246.984C257.908 246.643 257.897 246.296 257.876 245.944C257.865 245.592 257.839 245.251 257.796 244.92H259.732L259.956 247.128H259.636C259.743 246.595 259.919 246.152 260.164 245.8C260.42 245.448 260.729 245.187 261.092 245.016C261.455 244.845 261.849 244.76 262.276 244.76C262.468 244.76 262.623 244.771 262.74 244.792C262.857 244.803 262.975 244.829 263.092 244.872L263.076 246.632C262.873 246.547 262.697 246.493 262.548 246.472C262.409 246.451 262.233 246.44 262.02 246.44C261.561 246.44 261.172 246.536 260.852 246.728C260.543 246.92 260.308 247.187 260.148 247.528C259.999 247.869 259.924 248.259 259.924 248.696V253H257.908ZM267.247 253.16C266.543 253.16 265.924 252.995 265.391 252.664C264.858 252.323 264.442 251.837 264.143 251.208C263.844 250.579 263.695 249.827 263.695 248.952C263.695 248.077 263.844 247.331 264.143 246.712C264.442 246.083 264.858 245.603 265.391 245.272C265.924 244.931 266.543 244.76 267.247 244.76C267.93 244.76 268.527 244.931 269.039 245.272C269.562 245.603 269.908 246.051 270.079 246.616H269.903L270.079 244.92H271.999C271.967 245.251 271.935 245.587 271.903 245.928C271.882 246.269 271.871 246.605 271.871 246.936V253H269.887L269.871 251.336H270.063C269.892 251.891 269.546 252.333 269.023 252.664C268.5 252.995 267.908 253.16 267.247 253.16ZM267.807 251.624C268.436 251.624 268.943 251.405 269.327 250.968C269.711 250.52 269.903 249.848 269.903 248.952C269.903 248.056 269.711 247.389 269.327 246.952C268.943 246.515 268.436 246.296 267.807 246.296C267.178 246.296 266.671 246.515 266.287 246.952C265.903 247.389 265.711 248.056 265.711 248.952C265.711 249.848 265.898 250.52 266.271 250.968C266.655 251.405 267.167 251.624 267.807 251.624ZM277.793 256.584C277.046 256.584 276.369 256.504 275.761 256.344C275.164 256.184 274.63 255.939 274.161 255.608L274.593 254.168C274.902 254.371 275.222 254.536 275.553 254.664C275.884 254.792 276.225 254.888 276.577 254.952C276.929 255.016 277.286 255.048 277.649 255.048C278.396 255.048 278.95 254.861 279.313 254.488C279.686 254.125 279.873 253.603 279.873 252.92V250.984H280.033C279.862 251.539 279.516 251.981 278.993 252.312C278.481 252.643 277.889 252.808 277.217 252.808C276.492 252.808 275.857 252.648 275.313 252.328C274.78 251.997 274.364 251.528 274.065 250.92C273.766 250.312 273.617 249.597 273.617 248.776C273.617 247.955 273.766 247.245 274.065 246.648C274.364 246.04 274.78 245.576 275.313 245.256C275.857 244.925 276.492 244.76 277.217 244.76C277.9 244.76 278.492 244.925 278.993 245.256C279.505 245.576 279.846 246.013 280.017 246.568L279.873 246.472L280.033 244.92H281.969C281.926 245.251 281.894 245.587 281.873 245.928C281.852 246.269 281.841 246.605 281.841 246.936V252.68C281.841 253.949 281.494 254.915 280.801 255.576C280.118 256.248 279.116 256.584 277.793 256.584ZM277.761 251.272C278.401 251.272 278.908 251.059 279.281 250.632C279.665 250.195 279.857 249.576 279.857 248.776C279.857 247.976 279.665 247.363 279.281 246.936C278.908 246.509 278.401 246.296 277.761 246.296C277.11 246.296 276.593 246.509 276.209 246.936C275.825 247.363 275.633 247.976 275.633 248.776C275.633 249.576 275.825 250.195 276.209 250.632C276.593 251.059 277.11 251.272 277.761 251.272ZM297.833 253.16C297.342 252.989 296.873 252.76 296.425 252.472C295.977 252.173 295.571 251.859 295.209 251.528L295.641 251.544C295.15 252.045 294.579 252.44 293.929 252.728C293.278 253.016 292.585 253.16 291.849 253.16C291.027 253.16 290.318 253.032 289.721 252.776C289.123 252.52 288.665 252.168 288.345 251.72C288.025 251.261 287.865 250.728 287.865 250.12C287.865 249.395 288.078 248.776 288.505 248.264C288.931 247.752 289.518 247.272 290.265 246.824L290.809 246.52L290.505 246.888C290.046 246.429 289.705 245.987 289.481 245.56C289.257 245.133 289.145 244.691 289.145 244.232C289.145 243.699 289.273 243.235 289.529 242.84C289.795 242.435 290.163 242.12 290.633 241.896C291.113 241.672 291.673 241.56 292.313 241.56C293.145 241.56 293.822 241.784 294.345 242.232C294.867 242.669 295.129 243.267 295.129 244.024C295.129 244.429 295.049 244.808 294.889 245.16C294.729 245.512 294.467 245.848 294.105 246.168C293.753 246.488 293.289 246.808 292.713 247.128L292.761 246.728L295.561 249.624H295.145C295.422 249.187 295.635 248.675 295.785 248.088C295.934 247.501 296.025 246.883 296.057 246.232H297.737C297.705 247.107 297.566 247.933 297.321 248.712C297.075 249.491 296.745 250.179 296.329 250.776L296.313 250.296C296.601 250.595 296.931 250.867 297.305 251.112C297.678 251.357 298.083 251.56 298.521 251.72L297.833 253.16ZM291.961 251.608C292.494 251.608 292.969 251.507 293.385 251.304C293.811 251.101 294.19 250.803 294.521 250.408L294.473 250.888L291.113 247.48L291.929 247.496L291.465 247.752C291.102 247.976 290.798 248.2 290.553 248.424C290.318 248.648 290.142 248.888 290.025 249.144C289.907 249.389 289.849 249.672 289.849 249.992C289.849 250.493 290.03 250.888 290.393 251.176C290.755 251.464 291.278 251.608 291.961 251.608ZM292.313 242.92C291.907 242.92 291.582 243.037 291.337 243.272C291.091 243.507 290.969 243.816 290.969 244.2C290.969 244.403 291.006 244.595 291.081 244.776C291.155 244.957 291.278 245.155 291.449 245.368C291.619 245.571 291.843 245.821 292.121 246.12L291.641 246.152C292.302 245.789 292.782 245.459 293.081 245.16C293.39 244.851 293.545 244.499 293.545 244.104C293.545 243.731 293.433 243.443 293.209 243.24C292.985 243.027 292.686 242.92 292.313 242.92ZM306.935 253.16C306.231 253.16 305.607 252.995 305.063 252.664C304.53 252.323 304.114 251.837 303.815 251.208C303.516 250.579 303.367 249.827 303.367 248.952C303.367 248.077 303.516 247.331 303.815 246.712C304.114 246.083 304.53 245.603 305.063 245.272C305.607 244.931 306.231 244.76 306.935 244.76C307.607 244.76 308.199 244.925 308.711 245.256C309.234 245.576 309.58 246.013 309.751 246.568H309.543V241.224H311.543V253H309.575V251.288H309.767C309.596 251.864 309.25 252.323 308.727 252.664C308.215 252.995 307.618 253.16 306.935 253.16ZM307.495 251.624C308.124 251.624 308.631 251.405 309.015 250.968C309.399 250.52 309.591 249.848 309.591 248.952C309.591 248.056 309.399 247.389 309.015 246.952C308.631 246.515 308.124 246.296 307.495 246.296C306.866 246.296 306.354 246.515 305.959 246.952C305.575 247.389 305.383 248.056 305.383 248.952C305.383 249.848 305.575 250.52 305.959 250.968C306.354 251.405 306.866 251.624 307.495 251.624ZM313.705 253V246.984C313.705 246.643 313.694 246.296 313.673 245.944C313.662 245.592 313.635 245.251 313.593 244.92H315.529L315.753 247.128H315.433C315.539 246.595 315.715 246.152 315.961 245.8C316.217 245.448 316.526 245.187 316.889 245.016C317.251 244.845 317.646 244.76 318.073 244.76C318.265 244.76 318.419 244.771 318.537 244.792C318.654 244.803 318.771 244.829 318.889 244.872L318.873 246.632C318.67 246.547 318.494 246.493 318.345 246.472C318.206 246.451 318.03 246.44 317.817 246.44C317.358 246.44 316.969 246.536 316.649 246.728C316.339 246.92 316.105 247.187 315.945 247.528C315.795 247.869 315.721 248.259 315.721 248.696V253H313.705ZM323.525 253.16C322.693 253.16 321.973 252.989 321.365 252.648C320.757 252.307 320.282 251.821 319.941 251.192C319.61 250.563 319.445 249.816 319.445 248.952C319.445 248.088 319.61 247.347 319.941 246.728C320.282 246.099 320.757 245.613 321.365 245.272C321.973 244.931 322.693 244.76 323.525 244.76C324.357 244.76 325.077 244.931 325.685 245.272C326.304 245.613 326.778 246.099 327.109 246.728C327.45 247.347 327.621 248.088 327.621 248.952C327.621 249.816 327.45 250.563 327.109 251.192C326.778 251.821 326.304 252.307 325.685 252.648C325.077 252.989 324.357 253.16 323.525 253.16ZM323.525 251.624C324.154 251.624 324.656 251.405 325.029 250.968C325.402 250.52 325.589 249.848 325.589 248.952C325.589 248.056 325.402 247.389 325.029 246.952C324.656 246.515 324.154 246.296 323.525 246.296C322.896 246.296 322.394 246.515 322.021 246.952C321.648 247.389 321.461 248.056 321.461 248.952C321.461 249.848 321.648 250.52 322.021 250.968C322.394 251.405 322.896 251.624 323.525 251.624ZM329.346 256.456V246.936C329.346 246.605 329.335 246.269 329.314 245.928C329.292 245.587 329.26 245.251 329.218 244.92H331.154L331.33 246.616H331.154C331.314 246.051 331.65 245.603 332.162 245.272C332.684 244.931 333.287 244.76 333.97 244.76C334.684 244.76 335.308 244.931 335.842 245.272C336.375 245.603 336.791 246.083 337.09 246.712C337.388 247.331 337.538 248.077 337.538 248.952C337.538 249.827 337.388 250.579 337.09 251.208C336.791 251.837 336.375 252.323 335.842 252.664C335.308 252.995 334.684 253.16 333.97 253.16C333.298 253.16 332.706 252.995 332.194 252.664C331.682 252.333 331.34 251.891 331.17 251.336H331.346V256.456H329.346ZM333.41 251.624C334.05 251.624 334.562 251.405 334.946 250.968C335.33 250.52 335.522 249.848 335.522 248.952C335.522 248.056 335.33 247.389 334.946 246.952C334.562 246.515 334.05 246.296 333.41 246.296C332.78 246.296 332.274 246.515 331.89 246.952C331.506 247.389 331.314 248.056 331.314 248.952C331.314 249.848 331.506 250.52 331.89 250.968C332.274 251.405 332.78 251.624 333.41 251.624ZM344.202 253V246.424H342.65V244.92H344.762L344.202 245.432V244.2C344.202 243.197 344.453 242.44 344.954 241.928C345.466 241.416 346.208 241.16 347.178 241.16C347.413 241.16 347.658 241.176 347.914 241.208C348.181 241.24 348.41 241.299 348.602 241.384V242.952C348.464 242.899 348.298 242.856 348.106 242.824C347.914 242.792 347.728 242.776 347.546 242.776C347.13 242.776 346.8 242.899 346.554 243.144C346.309 243.379 346.186 243.763 346.186 244.296V245.272L345.898 244.92H351.514V253H349.514V246.424H346.202V253H344.202ZM349.402 243.4V241.448H351.626V243.4H349.402ZM353.69 253V241.224H355.69V253H353.69ZM361.765 253.16C360.411 253.16 359.349 252.787 358.581 252.04C357.813 251.293 357.429 250.269 357.429 248.968C357.429 248.125 357.595 247.389 357.925 246.76C358.256 246.131 358.715 245.64 359.301 245.288C359.899 244.936 360.592 244.76 361.381 244.76C362.16 244.76 362.811 244.925 363.333 245.256C363.856 245.587 364.251 246.051 364.517 246.648C364.795 247.245 364.933 247.944 364.933 248.744V249.272H359.045V248.216H363.509L363.237 248.44C363.237 247.693 363.077 247.123 362.757 246.728C362.448 246.333 361.995 246.136 361.397 246.136C360.736 246.136 360.224 246.371 359.861 246.84C359.509 247.309 359.333 247.965 359.333 248.808V249.016C359.333 249.891 359.547 250.547 359.973 250.984C360.411 251.411 361.024 251.624 361.813 251.624C362.272 251.624 362.699 251.565 363.093 251.448C363.499 251.32 363.883 251.117 364.245 250.84L364.837 252.184C364.453 252.493 363.995 252.733 363.461 252.904C362.928 253.075 362.363 253.16 361.765 253.16ZM369.507 253.16C368.814 253.16 368.174 253.08 367.587 252.92C367.011 252.749 366.526 252.515 366.131 252.216L366.691 250.872C367.096 251.149 367.544 251.363 368.035 251.512C368.526 251.661 369.022 251.736 369.523 251.736C370.056 251.736 370.451 251.645 370.707 251.464C370.974 251.283 371.107 251.037 371.107 250.728C371.107 250.483 371.022 250.291 370.851 250.152C370.691 250.003 370.43 249.891 370.067 249.816L368.467 249.512C367.784 249.363 367.262 249.107 366.899 248.744C366.547 248.381 366.371 247.907 366.371 247.32C366.371 246.819 366.504 246.376 366.771 245.992C367.048 245.608 367.438 245.309 367.939 245.096C368.451 244.872 369.048 244.76 369.731 244.76C370.328 244.76 370.888 244.84 371.411 245C371.944 245.16 372.392 245.4 372.755 245.72L372.179 247.016C371.848 246.749 371.47 246.541 371.043 246.392C370.616 246.243 370.2 246.168 369.795 246.168C369.24 246.168 368.835 246.269 368.579 246.472C368.323 246.664 368.195 246.915 368.195 247.224C368.195 247.459 368.27 247.656 368.419 247.816C368.579 247.965 368.824 248.077 369.155 248.152L370.755 248.456C371.47 248.595 372.008 248.84 372.371 249.192C372.744 249.533 372.931 250.003 372.931 250.6C372.931 251.133 372.787 251.592 372.499 251.976C372.211 252.36 371.811 252.653 371.299 252.856C370.787 253.059 370.19 253.16 369.507 253.16ZM382.681 253.16C381.849 253.16 381.129 252.989 380.521 252.648C379.913 252.307 379.439 251.821 379.097 251.192C378.767 250.563 378.601 249.816 378.601 248.952C378.601 248.088 378.767 247.347 379.097 246.728C379.439 246.099 379.913 245.613 380.521 245.272C381.129 244.931 381.849 244.76 382.681 244.76C383.513 244.76 384.233 244.931 384.841 245.272C385.46 245.613 385.935 246.099 386.265 246.728C386.607 247.347 386.777 248.088 386.777 248.952C386.777 249.816 386.607 250.563 386.265 251.192C385.935 251.821 385.46 252.307 384.841 252.648C384.233 252.989 383.513 253.16 382.681 253.16ZM382.681 251.624C383.311 251.624 383.812 251.405 384.185 250.968C384.559 250.52 384.745 249.848 384.745 248.952C384.745 248.056 384.559 247.389 384.185 246.952C383.812 246.515 383.311 246.296 382.681 246.296C382.052 246.296 381.551 246.515 381.177 246.952C380.804 247.389 380.617 248.056 380.617 248.952C380.617 249.848 380.804 250.52 381.177 250.968C381.551 251.405 382.052 251.624 382.681 251.624ZM388.486 253V246.984C388.486 246.643 388.475 246.296 388.454 245.944C388.443 245.592 388.417 245.251 388.374 244.92H390.31L390.534 247.128H390.214C390.321 246.595 390.497 246.152 390.742 245.8C390.998 245.448 391.307 245.187 391.67 245.016C392.033 244.845 392.427 244.76 392.854 244.76C393.046 244.76 393.201 244.771 393.318 244.792C393.435 244.803 393.553 244.829 393.67 244.872L393.654 246.632C393.451 246.547 393.275 246.493 393.126 246.472C392.987 246.451 392.811 246.44 392.598 246.44C392.139 246.44 391.75 246.536 391.43 246.728C391.121 246.92 390.886 247.187 390.726 247.528C390.577 247.869 390.502 248.259 390.502 248.696V253H388.486Z" fill="#0F0F0F"/>
<path d="M399.334 253V241.72H404.278C405.505 241.72 406.449 241.981 407.11 242.504C407.771 243.016 408.102 243.731 408.102 244.648C408.102 245.331 407.899 245.907 407.494 246.376C407.089 246.845 406.529 247.16 405.814 247.32V247.08C406.635 247.197 407.27 247.496 407.718 247.976C408.177 248.445 408.406 249.069 408.406 249.848C408.406 250.851 408.059 251.629 407.366 252.184C406.673 252.728 405.707 253 404.47 253H399.334ZM401.318 251.432H404.23C404.923 251.432 405.462 251.304 405.846 251.048C406.23 250.781 406.422 250.349 406.422 249.752C406.422 249.144 406.23 248.712 405.846 248.456C405.462 248.189 404.923 248.056 404.23 248.056H401.318V251.432ZM401.318 246.504H403.926C404.662 246.504 405.206 246.371 405.558 246.104C405.921 245.827 406.102 245.421 406.102 244.888C406.102 244.355 405.921 243.955 405.558 243.688C405.206 243.411 404.662 243.272 403.926 243.272H401.318V246.504ZM410.205 253V246.984C410.205 246.643 410.194 246.296 410.173 245.944C410.162 245.592 410.135 245.251 410.093 244.92H412.029L412.253 247.128H411.933C412.039 246.595 412.215 246.152 412.461 245.8C412.717 245.448 413.026 245.187 413.389 245.016C413.751 244.845 414.146 244.76 414.573 244.76C414.765 244.76 414.919 244.771 415.037 244.792C415.154 244.803 415.271 244.829 415.389 244.872L415.373 246.632C415.17 246.547 414.994 246.493 414.845 246.472C414.706 246.451 414.53 246.44 414.317 246.44C413.858 246.44 413.469 246.536 413.149 246.728C412.839 246.92 412.605 247.187 412.445 247.528C412.295 247.869 412.221 248.259 412.221 248.696V253H410.205ZM420.025 253.16C419.193 253.16 418.473 252.989 417.865 252.648C417.257 252.307 416.782 251.821 416.441 251.192C416.11 250.563 415.945 249.816 415.945 248.952C415.945 248.088 416.11 247.347 416.441 246.728C416.782 246.099 417.257 245.613 417.865 245.272C418.473 244.931 419.193 244.76 420.025 244.76C420.857 244.76 421.577 244.931 422.185 245.272C422.804 245.613 423.278 246.099 423.609 246.728C423.95 247.347 424.121 248.088 424.121 248.952C424.121 249.816 423.95 250.563 423.609 251.192C423.278 251.821 422.804 252.307 422.185 252.648C421.577 252.989 420.857 253.16 420.025 253.16ZM420.025 251.624C420.654 251.624 421.156 251.405 421.529 250.968C421.902 250.52 422.089 249.848 422.089 248.952C422.089 248.056 421.902 247.389 421.529 246.952C421.156 246.515 420.654 246.296 420.025 246.296C419.396 246.296 418.894 246.515 418.521 246.952C418.148 247.389 417.961 248.056 417.961 248.952C417.961 249.848 418.148 250.52 418.521 250.968C418.894 251.405 419.396 251.624 420.025 251.624ZM427.93 253L424.778 244.92H426.842L429.114 251.208H428.698L431.002 244.92H432.426L434.714 251.208H434.346L436.602 244.92H438.554L435.402 253H433.642L431.226 246.568H432.074L429.706 253H427.93ZM442.538 253.16C441.845 253.16 441.205 253.08 440.618 252.92C440.042 252.749 439.557 252.515 439.162 252.216L439.722 250.872C440.128 251.149 440.576 251.363 441.066 251.512C441.557 251.661 442.053 251.736 442.554 251.736C443.088 251.736 443.482 251.645 443.738 251.464C444.005 251.283 444.138 251.037 444.138 250.728C444.138 250.483 444.053 250.291 443.882 250.152C443.722 250.003 443.461 249.891 443.098 249.816L441.498 249.512C440.816 249.363 440.293 249.107 439.93 248.744C439.578 248.381 439.402 247.907 439.402 247.32C439.402 246.819 439.536 246.376 439.802 245.992C440.08 245.608 440.469 245.309 440.97 245.096C441.482 244.872 442.08 244.76 442.762 244.76C443.36 244.76 443.92 244.84 444.442 245C444.976 245.16 445.424 245.4 445.786 245.72L445.21 247.016C444.88 246.749 444.501 246.541 444.074 246.392C443.648 246.243 443.232 246.168 442.826 246.168C442.272 246.168 441.866 246.269 441.61 246.472C441.354 246.664 441.226 246.915 441.226 247.224C441.226 247.459 441.301 247.656 441.45 247.816C441.61 247.965 441.856 248.077 442.186 248.152L443.786 248.456C444.501 248.595 445.04 248.84 445.402 249.192C445.776 249.533 445.962 250.003 445.962 250.6C445.962 251.133 445.818 251.592 445.53 251.976C445.242 252.36 444.842 252.653 444.33 252.856C443.818 253.059 443.221 253.16 442.538 253.16ZM451.578 253.16C450.223 253.16 449.162 252.787 448.394 252.04C447.626 251.293 447.242 250.269 447.242 248.968C447.242 248.125 447.407 247.389 447.738 246.76C448.069 246.131 448.527 245.64 449.114 245.288C449.711 244.936 450.405 244.76 451.194 244.76C451.973 244.76 452.623 244.925 453.146 245.256C453.669 245.587 454.063 246.051 454.33 246.648C454.607 247.245 454.746 247.944 454.746 248.744V249.272H448.858V248.216H453.322L453.05 248.44C453.05 247.693 452.89 247.123 452.57 246.728C452.261 246.333 451.807 246.136 451.21 246.136C450.549 246.136 450.037 246.371 449.674 246.84C449.322 247.309 449.146 247.965 449.146 248.808V249.016C449.146 249.891 449.359 250.547 449.786 250.984C450.223 251.411 450.837 251.624 451.626 251.624C452.085 251.624 452.511 251.565 452.906 251.448C453.311 251.32 453.695 251.117 454.058 250.84L454.65 252.184C454.266 252.493 453.807 252.733 453.274 252.904C452.741 253.075 452.175 253.16 451.578 253.16Z" fill="#DB0D4B"/>
<path d="M398.086 254.712H455.354V255.416H398.086V254.712Z" fill="#DB0D4B"/>
<path d="M167.412 283.108C166.732 283.108 166.124 283.02 165.588 282.844C165.052 282.668 164.584 282.416 164.184 282.088L164.544 281.296C164.824 281.504 165.104 281.68 165.384 281.824C165.672 281.96 165.98 282.064 166.308 282.136C166.636 282.2 167.004 282.232 167.412 282.232C168.124 282.232 168.652 282.1 168.996 281.836C169.34 281.572 169.512 281.22 169.512 280.78C169.512 280.404 169.392 280.116 169.152 279.916C168.912 279.716 168.492 279.556 167.892 279.436L166.632 279.184C165.856 279.024 165.276 278.764 164.892 278.404C164.516 278.044 164.328 277.556 164.328 276.94C164.328 276.436 164.456 275.996 164.712 275.62C164.976 275.244 165.344 274.952 165.816 274.744C166.288 274.536 166.836 274.432 167.46 274.432C168.06 274.432 168.608 274.524 169.104 274.708C169.6 274.884 170.024 275.144 170.376 275.488L170.028 276.256C169.652 275.92 169.256 275.68 168.84 275.536C168.432 275.384 167.968 275.308 167.448 275.308C166.792 275.308 166.272 275.452 165.888 275.74C165.512 276.02 165.324 276.404 165.324 276.892C165.324 277.284 165.444 277.592 165.684 277.816C165.924 278.032 166.32 278.196 166.872 278.308L168.144 278.56C168.96 278.728 169.56 278.98 169.944 279.316C170.328 279.652 170.52 280.124 170.52 280.732C170.52 281.196 170.392 281.608 170.136 281.968C169.888 282.328 169.532 282.608 169.068 282.808C168.604 283.008 168.052 283.108 167.412 283.108ZM174.144 283.108C173.432 283.108 172.892 282.912 172.524 282.52C172.164 282.128 171.984 281.528 171.984 280.72V276.976H172.956V280.696C172.956 281.248 173.068 281.656 173.292 281.92C173.516 282.176 173.864 282.304 174.336 282.304C174.864 282.304 175.288 282.132 175.608 281.788C175.928 281.444 176.088 280.984 176.088 280.408V276.976H177.06V283H176.112V281.644H176.268C176.1 282.108 175.828 282.468 175.452 282.724C175.084 282.98 174.648 283.108 174.144 283.108ZM178.946 285.592V278.368C178.946 278.144 178.934 277.916 178.91 277.684C178.894 277.444 178.874 277.208 178.85 276.976H179.786L179.918 278.404H179.774C179.902 277.932 180.162 277.56 180.554 277.288C180.946 277.008 181.414 276.868 181.958 276.868C182.502 276.868 182.97 276.992 183.362 277.24C183.762 277.488 184.074 277.844 184.298 278.308C184.522 278.772 184.634 279.332 184.634 279.988C184.634 280.636 184.522 281.192 184.298 281.656C184.082 282.12 183.774 282.48 183.374 282.736C182.974 282.984 182.502 283.108 181.958 283.108C181.422 283.108 180.958 282.972 180.566 282.7C180.174 282.428 179.914 282.056 179.786 281.584H179.918V285.592H178.946ZM181.766 282.316C182.342 282.316 182.798 282.12 183.134 281.728C183.478 281.328 183.65 280.748 183.65 279.988C183.65 279.22 183.478 278.64 183.134 278.248C182.798 277.848 182.342 277.648 181.766 277.648C181.198 277.648 180.742 277.848 180.398 278.248C180.062 278.64 179.894 279.22 179.894 279.988C179.894 280.748 180.062 281.328 180.398 281.728C180.742 282.12 181.198 282.316 181.766 282.316ZM186.141 285.592V278.368C186.141 278.144 186.129 277.916 186.105 277.684C186.089 277.444 186.069 277.208 186.045 276.976H186.981L187.113 278.404H186.969C187.097 277.932 187.357 277.56 187.749 277.288C188.141 277.008 188.609 276.868 189.153 276.868C189.697 276.868 190.165 276.992 190.557 277.24C190.957 277.488 191.269 277.844 191.493 278.308C191.717 278.772 191.829 279.332 191.829 279.988C191.829 280.636 191.717 281.192 191.493 281.656C191.277 282.12 190.969 282.48 190.569 282.736C190.169 282.984 189.697 283.108 189.153 283.108C188.617 283.108 188.153 282.972 187.761 282.7C187.369 282.428 187.109 282.056 186.981 281.584H187.113V285.592H186.141ZM188.961 282.316C189.537 282.316 189.993 282.12 190.329 281.728C190.673 281.328 190.845 280.748 190.845 279.988C190.845 279.22 190.673 278.64 190.329 278.248C189.993 277.848 189.537 277.648 188.961 277.648C188.393 277.648 187.937 277.848 187.593 278.248C187.257 278.64 187.089 279.22 187.089 279.988C187.089 280.748 187.257 281.328 187.593 281.728C187.937 282.12 188.393 282.316 188.961 282.316ZM195.809 283.108C195.233 283.108 194.729 282.984 194.297 282.736C193.873 282.48 193.545 282.12 193.313 281.656C193.081 281.184 192.965 280.628 192.965 279.988C192.965 279.34 193.081 278.784 193.313 278.32C193.545 277.856 193.873 277.5 194.297 277.252C194.729 276.996 195.233 276.868 195.809 276.868C196.393 276.868 196.897 276.996 197.321 277.252C197.753 277.5 198.085 277.856 198.317 278.32C198.557 278.784 198.677 279.34 198.677 279.988C198.677 280.628 198.557 281.184 198.317 281.656C198.085 282.12 197.753 282.48 197.321 282.736C196.897 282.984 196.393 283.108 195.809 283.108ZM195.809 282.316C196.385 282.316 196.841 282.12 197.177 281.728C197.513 281.328 197.681 280.748 197.681 279.988C197.681 279.22 197.509 278.64 197.165 278.248C196.829 277.848 196.377 277.648 195.809 277.648C195.241 277.648 194.789 277.848 194.453 278.248C194.117 278.64 193.949 279.22 193.949 279.988C193.949 280.748 194.117 281.328 194.453 281.728C194.789 282.12 195.241 282.316 195.809 282.316ZM200.168 283V278.428C200.168 278.188 200.16 277.944 200.144 277.696C200.136 277.448 200.12 277.208 200.096 276.976H201.032L201.152 278.44L200.984 278.452C201.064 278.092 201.204 277.796 201.404 277.564C201.604 277.332 201.84 277.16 202.112 277.048C202.384 276.928 202.668 276.868 202.964 276.868C203.084 276.868 203.188 276.872 203.276 276.88C203.372 276.888 203.46 276.908 203.54 276.94L203.528 277.804C203.408 277.764 203.296 277.74 203.192 277.732C203.096 277.716 202.984 277.708 202.856 277.708C202.504 277.708 202.196 277.792 201.932 277.96C201.676 278.128 201.48 278.344 201.344 278.608C201.216 278.872 201.152 279.152 201.152 279.448V283H200.168ZM207.004 283.108C206.412 283.108 205.96 282.94 205.648 282.604C205.336 282.26 205.18 281.744 205.18 281.056V277.732H204.004V276.976H205.18V275.332L206.152 275.056V276.976H207.88V277.732H206.152V280.948C206.152 281.428 206.232 281.772 206.392 281.98C206.56 282.18 206.808 282.28 207.136 282.28C207.288 282.28 207.424 282.268 207.544 282.244C207.664 282.212 207.772 282.176 207.868 282.136V282.952C207.756 283 207.62 283.036 207.46 283.06C207.308 283.092 207.156 283.108 207.004 283.108ZM211.681 283.108C210.737 283.108 209.993 282.836 209.449 282.292C208.905 281.74 208.633 280.976 208.633 280C208.633 279.368 208.753 278.82 208.993 278.356C209.233 277.884 209.569 277.52 210.001 277.264C210.433 277 210.929 276.868 211.489 276.868C212.041 276.868 212.505 276.984 212.881 277.216C213.257 277.448 213.545 277.78 213.745 278.212C213.945 278.636 214.045 279.14 214.045 279.724V280.084H209.377V279.472H213.409L213.205 279.628C213.205 278.988 213.061 278.488 212.773 278.128C212.485 277.768 212.057 277.588 211.489 277.588C210.889 277.588 210.421 277.8 210.085 278.224C209.749 278.64 209.581 279.204 209.581 279.916V280.024C209.581 280.776 209.765 281.348 210.133 281.74C210.509 282.124 211.033 282.316 211.705 282.316C212.065 282.316 212.401 282.264 212.713 282.16C213.033 282.048 213.337 281.868 213.625 281.62L213.961 282.304C213.697 282.56 213.361 282.76 212.953 282.904C212.553 283.04 212.129 283.108 211.681 283.108ZM217.812 283.108C217.284 283.108 216.82 282.984 216.42 282.736C216.02 282.48 215.708 282.12 215.484 281.656C215.268 281.192 215.16 280.636 215.16 279.988C215.16 279.332 215.268 278.772 215.484 278.308C215.708 277.844 216.02 277.488 216.42 277.24C216.82 276.992 217.284 276.868 217.812 276.868C218.356 276.868 218.824 277.004 219.216 277.276C219.616 277.548 219.884 277.916 220.02 278.38H219.876V274.168H220.848V283H219.888V281.56H220.02C219.892 282.04 219.628 282.42 219.228 282.7C218.828 282.972 218.356 283.108 217.812 283.108ZM218.016 282.316C218.584 282.316 219.04 282.12 219.384 281.728C219.728 281.328 219.9 280.748 219.9 279.988C219.9 279.22 219.728 278.64 219.384 278.248C219.04 277.848 218.584 277.648 218.016 277.648C217.448 277.648 216.992 277.848 216.648 278.248C216.312 278.64 216.144 279.22 216.144 279.988C216.144 280.748 216.312 281.328 216.648 281.728C216.992 282.12 217.448 282.316 218.016 282.316ZM226.168 283V277.732H224.992V276.976H226.432L226.168 277.228V276.22C226.168 275.54 226.34 275.02 226.684 274.66C227.028 274.3 227.52 274.12 228.16 274.12C228.32 274.12 228.484 274.136 228.652 274.168C228.828 274.192 228.972 274.228 229.084 274.276V275.08C228.988 275.04 228.868 275.008 228.724 274.984C228.588 274.952 228.448 274.936 228.304 274.936C228.056 274.936 227.844 274.988 227.668 275.092C227.492 275.188 227.36 275.336 227.272 275.536C227.184 275.736 227.14 275.992 227.14 276.304V277.18L226.984 276.976H228.82V277.732H227.14V283H226.168ZM232.219 283.108C231.643 283.108 231.139 282.984 230.707 282.736C230.283 282.48 229.955 282.12 229.723 281.656C229.491 281.184 229.375 280.628 229.375 279.988C229.375 279.34 229.491 278.784 229.723 278.32C229.955 277.856 230.283 277.5 230.707 277.252C231.139 276.996 231.643 276.868 232.219 276.868C232.803 276.868 233.307 276.996 233.731 277.252C234.163 277.5 234.495 277.856 234.727 278.32C234.967 278.784 235.087 279.34 235.087 279.988C235.087 280.628 234.967 281.184 234.727 281.656C234.495 282.12 234.163 282.48 233.731 282.736C233.307 282.984 232.803 283.108 232.219 283.108ZM232.219 282.316C232.795 282.316 233.251 282.12 233.587 281.728C233.923 281.328 234.091 280.748 234.091 279.988C234.091 279.22 233.919 278.64 233.575 278.248C233.239 277.848 232.787 277.648 232.219 277.648C231.651 277.648 231.199 277.848 230.863 278.248C230.527 278.64 230.359 279.22 230.359 279.988C230.359 280.748 230.527 281.328 230.863 281.728C231.199 282.12 231.651 282.316 232.219 282.316ZM236.578 283V278.428C236.578 278.188 236.57 277.944 236.554 277.696C236.546 277.448 236.53 277.208 236.506 276.976H237.442L237.562 278.44L237.394 278.452C237.474 278.092 237.614 277.796 237.814 277.564C238.014 277.332 238.25 277.16 238.522 277.048C238.794 276.928 239.078 276.868 239.374 276.868C239.494 276.868 239.598 276.872 239.686 276.88C239.782 276.888 239.87 276.908 239.95 276.94L239.938 277.804C239.818 277.764 239.706 277.74 239.602 277.732C239.506 277.716 239.394 277.708 239.266 277.708C238.914 277.708 238.606 277.792 238.342 277.96C238.086 278.128 237.89 278.344 237.754 278.608C237.626 278.872 237.562 279.152 237.562 279.448V283H236.578ZM240.962 283V278.368C240.962 278.144 240.95 277.916 240.926 277.684C240.91 277.444 240.89 277.208 240.866 276.976H241.802L241.922 278.296H241.778C241.938 277.84 242.19 277.488 242.534 277.24C242.886 276.992 243.31 276.868 243.806 276.868C244.31 276.868 244.718 276.988 245.03 277.228C245.35 277.468 245.566 277.84 245.678 278.344H245.498C245.65 277.888 245.918 277.528 246.302 277.264C246.686 277 247.134 276.868 247.646 276.868C248.31 276.868 248.81 277.06 249.146 277.444C249.482 277.82 249.65 278.416 249.65 279.232V283H248.678V279.292C248.678 278.724 248.578 278.312 248.378 278.056C248.178 277.792 247.858 277.66 247.418 277.66C246.914 277.66 246.514 277.836 246.218 278.188C245.93 278.532 245.786 278.996 245.786 279.58V283H244.814V279.292C244.814 278.724 244.714 278.312 244.514 278.056C244.314 277.792 243.994 277.66 243.554 277.66C243.05 277.66 242.654 277.836 242.366 278.188C242.078 278.532 241.934 278.996 241.934 279.58V283H240.962ZM253.789 283.108C253.253 283.108 252.785 282.984 252.385 282.736C251.985 282.48 251.673 282.12 251.449 281.656C251.233 281.192 251.125 280.636 251.125 279.988C251.125 279.332 251.233 278.772 251.449 278.308C251.673 277.844 251.985 277.488 252.385 277.24C252.785 276.992 253.253 276.868 253.789 276.868C254.333 276.868 254.801 277.008 255.193 277.288C255.593 277.56 255.857 277.932 255.985 278.404H255.841L255.973 276.976H256.909C256.885 277.208 256.861 277.444 256.837 277.684C256.821 277.916 256.813 278.144 256.813 278.368V283H255.841V281.584H255.973C255.845 282.056 255.581 282.428 255.181 282.7C254.781 282.972 254.317 283.108 253.789 283.108ZM253.981 282.316C254.557 282.316 255.013 282.12 255.349 281.728C255.685 281.328 255.853 280.748 255.853 279.988C255.853 279.22 255.685 278.64 255.349 278.248C255.013 277.848 254.557 277.648 253.981 277.648C253.413 277.648 252.957 277.848 252.613 278.248C252.277 278.64 252.109 279.22 252.109 279.988C252.109 280.748 252.277 281.328 252.613 281.728C252.957 282.12 253.413 282.316 253.981 282.316ZM260.828 283.108C260.236 283.108 259.784 282.94 259.472 282.604C259.16 282.26 259.004 281.744 259.004 281.056V277.732H257.828V276.976H259.004V275.332L259.976 275.056V276.976H261.704V277.732H259.976V280.948C259.976 281.428 260.056 281.772 260.216 281.98C260.384 282.18 260.632 282.28 260.96 282.28C261.112 282.28 261.248 282.268 261.368 282.244C261.488 282.212 261.596 282.176 261.692 282.136V282.952C261.58 283 261.444 283.036 261.284 283.06C261.132 283.092 260.98 283.108 260.828 283.108ZM265.505 283.108C264.561 283.108 263.817 282.836 263.273 282.292C262.729 281.74 262.457 280.976 262.457 280C262.457 279.368 262.577 278.82 262.817 278.356C263.057 277.884 263.393 277.52 263.825 277.264C264.257 277 264.753 276.868 265.313 276.868C265.865 276.868 266.329 276.984 266.705 277.216C267.081 277.448 267.369 277.78 267.569 278.212C267.769 278.636 267.869 279.14 267.869 279.724V280.084H263.201V279.472H267.233L267.029 279.628C267.029 278.988 266.885 278.488 266.597 278.128C266.309 277.768 265.881 277.588 265.313 277.588C264.713 277.588 264.245 277.8 263.909 278.224C263.573 278.64 263.405 279.204 263.405 279.916V280.024C263.405 280.776 263.589 281.348 263.957 281.74C264.333 282.124 264.857 282.316 265.529 282.316C265.889 282.316 266.225 282.264 266.537 282.16C266.857 282.048 267.161 281.868 267.449 281.62L267.785 282.304C267.521 282.56 267.185 282.76 266.777 282.904C266.377 283.04 265.953 283.108 265.505 283.108ZM271.36 283.108C270.88 283.108 270.432 283.044 270.016 282.916C269.6 282.78 269.256 282.592 268.984 282.352L269.32 281.668C269.616 281.9 269.936 282.072 270.28 282.184C270.632 282.296 270.996 282.352 271.372 282.352C271.852 282.352 272.212 282.268 272.452 282.1C272.7 281.924 272.824 281.684 272.824 281.38C272.824 281.148 272.744 280.964 272.584 280.828C272.432 280.684 272.18 280.572 271.828 280.492L270.712 280.264C270.2 280.152 269.816 279.964 269.56 279.7C269.304 279.428 269.176 279.084 269.176 278.668C269.176 278.316 269.268 278.008 269.452 277.744C269.636 277.472 269.904 277.26 270.256 277.108C270.608 276.948 271.02 276.868 271.492 276.868C271.932 276.868 272.336 276.936 272.704 277.072C273.08 277.2 273.392 277.388 273.64 277.636L273.292 278.308C273.052 278.076 272.776 277.904 272.464 277.792C272.16 277.672 271.844 277.612 271.516 277.612C271.044 277.612 270.688 277.708 270.448 277.9C270.216 278.084 270.1 278.328 270.1 278.632C270.1 278.864 270.172 279.056 270.316 279.208C270.468 279.352 270.7 279.46 271.012 279.532L272.128 279.76C272.672 279.88 273.076 280.068 273.34 280.324C273.612 280.572 273.748 280.908 273.748 281.332C273.748 281.692 273.648 282.008 273.448 282.28C273.248 282.544 272.968 282.748 272.608 282.892C272.256 283.036 271.84 283.108 271.36 283.108ZM275.117 278.2V276.976H276.341V278.2H275.117ZM275.117 283V281.776H276.341V283H275.117ZM281.169 285.232C281.041 285.232 280.893 285.224 280.725 285.208C280.565 285.2 280.401 285.176 280.233 285.136V284.308C280.385 284.34 280.525 284.364 280.653 284.38C280.789 284.404 280.909 284.416 281.013 284.416C281.381 284.416 281.657 284.3 281.841 284.068C282.025 283.844 282.117 283.484 282.117 282.988V274.54H283.113V283C283.113 283.48 283.041 283.888 282.897 284.224C282.761 284.56 282.549 284.812 282.261 284.98C281.981 285.148 281.617 285.232 281.169 285.232ZM285.226 283V274.54H288.67C289.558 274.54 290.242 274.756 290.722 275.188C291.202 275.612 291.442 276.204 291.442 276.964C291.442 277.708 291.202 278.3 290.722 278.74C290.242 279.172 289.558 279.388 288.67 279.388H286.222V283H285.226ZM286.222 278.56H288.574C289.19 278.56 289.654 278.42 289.966 278.14C290.286 277.86 290.446 277.468 290.446 276.964C290.446 276.452 290.286 276.056 289.966 275.776C289.654 275.496 289.19 275.356 288.574 275.356H286.222V278.56ZM293.042 283V274.54H298.442V275.356H294.014V278.296H298.178V279.124H294.014V282.172H298.442V283H293.042ZM303.95 283.108C303.022 283.108 302.246 282.936 301.622 282.592C300.998 282.248 300.53 281.752 300.218 281.104C299.906 280.456 299.75 279.68 299.75 278.776C299.75 277.88 299.914 277.108 300.242 276.46C300.57 275.812 301.042 275.312 301.658 274.96C302.274 274.608 303.018 274.432 303.89 274.432C304.506 274.432 305.038 274.524 305.486 274.708C305.942 274.884 306.35 275.148 306.71 275.5L306.338 276.28C306.074 276.048 305.818 275.864 305.57 275.728C305.33 275.592 305.078 275.492 304.814 275.428C304.55 275.356 304.242 275.32 303.89 275.32C302.89 275.32 302.122 275.624 301.586 276.232C301.058 276.832 300.794 277.684 300.794 278.788C300.794 279.9 301.05 280.752 301.562 281.344C302.082 281.936 302.886 282.232 303.974 282.232C304.374 282.232 304.754 282.196 305.114 282.124C305.482 282.044 305.838 281.932 306.182 281.788L305.966 282.328V279.352H303.806V278.572H306.818V282.496C306.474 282.68 306.038 282.828 305.51 282.94C304.99 283.052 304.47 283.108 303.95 283.108ZM309.043 284.368L308.587 284.02C308.803 283.796 308.943 283.584 309.007 283.384C309.079 283.192 309.115 282.996 309.115 282.796L309.331 283H308.539V281.776H309.763V282.64C309.763 282.96 309.711 283.26 309.607 283.54C309.503 283.828 309.315 284.104 309.043 284.368ZM314.698 283V274.54H318.142C319.03 274.54 319.714 274.756 320.194 275.188C320.674 275.612 320.914 276.204 320.914 276.964C320.914 277.708 320.674 278.3 320.194 278.74C319.714 279.172 319.03 279.388 318.142 279.388H315.694V283H314.698ZM315.694 278.56H318.046C318.662 278.56 319.126 278.42 319.438 278.14C319.758 277.86 319.918 277.468 319.918 276.964C319.918 276.452 319.758 276.056 319.438 275.776C319.126 275.496 318.662 275.356 318.046 275.356H315.694V278.56ZM322.515 283V274.54H323.295L328.719 281.74H328.443V274.54H329.367V283H328.599L323.175 275.8H323.439V283H322.515ZM335.368 283.108C334.44 283.108 333.664 282.936 333.04 282.592C332.416 282.248 331.948 281.752 331.636 281.104C331.324 280.456 331.168 279.68 331.168 278.776C331.168 277.88 331.332 277.108 331.66 276.46C331.988 275.812 332.46 275.312 333.076 274.96C333.692 274.608 334.436 274.432 335.308 274.432C335.924 274.432 336.456 274.524 336.904 274.708C337.36 274.884 337.768 275.148 338.128 275.5L337.756 276.28C337.492 276.048 337.236 275.864 336.988 275.728C336.748 275.592 336.496 275.492 336.232 275.428C335.968 275.356 335.66 275.32 335.308 275.32C334.308 275.32 333.54 275.624 333.004 276.232C332.476 276.832 332.212 277.684 332.212 278.788C332.212 279.9 332.468 280.752 332.98 281.344C333.5 281.936 334.304 282.232 335.392 282.232C335.792 282.232 336.172 282.196 336.532 282.124C336.9 282.044 337.256 281.932 337.6 281.788L337.384 282.328V279.352H335.224V278.572H338.236V282.496C337.892 282.68 337.456 282.828 336.928 282.94C336.408 283.052 335.888 283.108 335.368 283.108ZM340.461 284.368L340.005 284.02C340.221 283.796 340.361 283.584 340.425 283.384C340.497 283.192 340.533 282.996 340.533 282.796L340.749 283H339.957V281.776H341.181V282.64C341.181 282.96 341.129 283.26 341.025 283.54C340.921 283.828 340.733 284.104 340.461 284.368ZM350.004 283.108C349.076 283.108 348.3 282.936 347.676 282.592C347.052 282.248 346.584 281.752 346.272 281.104C345.96 280.456 345.804 279.68 345.804 278.776C345.804 277.88 345.968 277.108 346.296 276.46C346.624 275.812 347.096 275.312 347.712 274.96C348.328 274.608 349.072 274.432 349.944 274.432C350.56 274.432 351.092 274.524 351.54 274.708C351.996 274.884 352.404 275.148 352.764 275.5L352.392 276.28C352.128 276.048 351.872 275.864 351.624 275.728C351.384 275.592 351.132 275.492 350.868 275.428C350.604 275.356 350.296 275.32 349.944 275.32C348.944 275.32 348.176 275.624 347.64 276.232C347.112 276.832 346.848 277.684 346.848 278.788C346.848 279.9 347.104 280.752 347.616 281.344C348.136 281.936 348.94 282.232 350.028 282.232C350.428 282.232 350.808 282.196 351.168 282.124C351.536 282.044 351.892 281.932 352.236 281.788L352.02 282.328V279.352H349.86V278.572H352.872V282.496C352.528 282.68 352.092 282.828 351.564 282.94C351.044 283.052 350.524 283.108 350.004 283.108ZM354.894 283V274.54H355.89V283H354.894ZM357.999 283V274.54H363.279V275.356H358.995V278.32H363.015V279.136H358.995V283H357.999ZM364.613 284.368L364.157 284.02C364.373 283.796 364.513 283.584 364.577 283.384C364.649 283.192 364.685 282.996 364.685 282.796L364.901 283H364.109V281.776H365.333V282.64C365.333 282.96 365.281 283.26 365.177 283.54C365.073 283.828 364.885 284.104 364.613 284.368ZM370.281 283V274.54H371.145L374.541 282.208H374.193L377.589 274.54H378.453V283H377.541V275.824H377.901L374.697 283H374.037L370.821 275.824H371.181V283H370.281ZM380.57 283V274.54H384.014C384.902 274.54 385.586 274.756 386.066 275.188C386.546 275.612 386.786 276.204 386.786 276.964C386.786 277.708 386.546 278.3 386.066 278.74C385.586 279.172 384.902 279.388 384.014 279.388H381.566V283H380.57ZM381.566 278.56H383.918C384.534 278.56 384.998 278.42 385.31 278.14C385.63 277.86 385.79 277.468 385.79 276.964C385.79 276.452 385.63 276.056 385.31 275.776C384.998 275.496 384.534 275.356 383.918 275.356H381.566V278.56ZM391.962 283V281.164H387.93V280.444L392.118 274.54H392.934V280.36H394.23V281.164H392.934V283H391.962ZM391.962 280.36V275.716H392.226L388.746 280.612V280.36H391.962ZM395.785 284.368L395.329 284.02C395.545 283.796 395.685 283.584 395.749 283.384C395.821 283.192 395.857 282.996 395.857 282.796L396.073 283H395.281V281.776H396.505V282.64C396.505 282.96 396.453 283.26 396.349 283.54C396.245 283.828 396.057 284.104 395.785 284.368ZM401.441 283V274.54H404.885C405.773 274.54 406.457 274.756 406.937 275.188C407.417 275.612 407.657 276.204 407.657 276.964C407.657 277.708 407.417 278.3 406.937 278.74C406.457 279.172 405.773 279.388 404.885 279.388H402.437V283H401.441ZM402.437 278.56H404.789C405.405 278.56 405.869 278.42 406.181 278.14C406.501 277.86 406.661 277.468 406.661 276.964C406.661 276.452 406.501 276.056 406.181 275.776C405.869 275.496 405.405 275.356 404.789 275.356H402.437V278.56ZM409.257 283V274.54H412.065C413.001 274.54 413.793 274.704 414.441 275.032C415.089 275.352 415.581 275.828 415.917 276.46C416.253 277.084 416.421 277.852 416.421 278.764C416.421 279.668 416.253 280.436 415.917 281.068C415.581 281.7 415.089 282.18 414.441 282.508C413.793 282.836 413.001 283 412.065 283H409.257ZM410.253 282.148H411.993C413.145 282.148 414.001 281.868 414.561 281.308C415.121 280.74 415.401 279.892 415.401 278.764C415.401 277.628 415.121 276.78 414.561 276.22C414.001 275.66 413.145 275.38 411.993 275.38H410.253V282.148ZM418.222 283V274.54H423.502V275.356H419.218V278.32H423.238V279.136H419.218V283H418.222ZM424.836 284.368L424.38 284.02C424.596 283.796 424.736 283.584 424.8 283.384C424.872 283.192 424.908 282.996 424.908 282.796L425.124 283H424.332V281.776H425.556V282.64C425.556 282.96 425.504 283.26 425.4 283.54C425.296 283.828 425.108 284.104 424.836 284.368ZM430.491 283V274.54H433.935C434.823 274.54 435.507 274.756 435.987 275.188C436.467 275.612 436.707 276.204 436.707 276.964C436.707 277.708 436.467 278.3 435.987 278.74C435.507 279.172 434.823 279.388 433.935 279.388H431.487V283H430.491ZM431.487 278.56H433.839C434.455 278.56 434.919 278.42 435.231 278.14C435.551 277.86 435.711 277.468 435.711 276.964C435.711 276.452 435.551 276.056 435.231 275.776C434.919 275.496 434.455 275.356 433.839 275.356H431.487V278.56ZM441.068 283.108C440.388 283.108 439.78 283.02 439.244 282.844C438.708 282.668 438.24 282.416 437.84 282.088L438.2 281.296C438.48 281.504 438.76 281.68 439.04 281.824C439.328 281.96 439.636 282.064 439.964 282.136C440.292 282.2 440.66 282.232 441.068 282.232C441.78 282.232 442.308 282.1 442.652 281.836C442.996 281.572 443.168 281.22 443.168 280.78C443.168 280.404 443.048 280.116 442.808 279.916C442.568 279.716 442.148 279.556 441.548 279.436L440.288 279.184C439.512 279.024 438.932 278.764 438.548 278.404C438.172 278.044 437.984 277.556 437.984 276.94C437.984 276.436 438.112 275.996 438.368 275.62C438.632 275.244 439 274.952 439.472 274.744C439.944 274.536 440.492 274.432 441.116 274.432C441.716 274.432 442.264 274.524 442.76 274.708C443.256 274.884 443.68 275.144 444.032 275.488L443.684 276.256C443.308 275.92 442.912 275.68 442.496 275.536C442.088 275.384 441.624 275.308 441.104 275.308C440.448 275.308 439.928 275.452 439.544 275.74C439.168 276.02 438.98 276.404 438.98 276.892C438.98 277.284 439.1 277.592 439.34 277.816C439.58 278.032 439.976 278.196 440.528 278.308L441.8 278.56C442.616 278.728 443.216 278.98 443.6 279.316C443.984 279.652 444.176 280.124 444.176 280.732C444.176 281.196 444.048 281.608 443.792 281.968C443.544 282.328 443.188 282.608 442.724 282.808C442.26 283.008 441.708 283.108 441.068 283.108ZM445.784 283V274.54H448.592C449.528 274.54 450.32 274.704 450.968 275.032C451.616 275.352 452.108 275.828 452.444 276.46C452.78 277.084 452.948 277.852 452.948 278.764C452.948 279.668 452.78 280.436 452.444 281.068C452.108 281.7 451.616 282.18 450.968 282.508C450.32 282.836 449.528 283 448.592 283H445.784ZM446.78 282.148H448.52C449.672 282.148 450.528 281.868 451.088 281.308C451.648 280.74 451.928 279.892 451.928 278.764C451.928 277.628 451.648 276.78 451.088 276.22C450.528 275.66 449.672 275.38 448.52 275.38H446.78V282.148ZM454.52 284.368L454.064 284.02C454.28 283.796 454.42 283.584 454.484 283.384C454.556 283.192 454.592 282.996 454.592 282.796L454.808 283H454.016V281.776H455.24V282.64C455.24 282.96 455.188 283.26 455.084 283.54C454.98 283.828 454.792 284.104 454.52 284.368ZM459.335 283L463.067 274.54H463.931L467.723 283H466.691L465.635 280.588L466.079 280.84H460.907L461.387 280.588L460.355 283H459.335ZM463.487 275.68L461.543 280.24L461.255 280.024H465.719L465.503 280.24L463.511 275.68H463.487ZM468.999 283V274.54H469.995V283H468.999ZM472.309 284.368L471.853 284.02C472.069 283.796 472.209 283.584 472.273 283.384C472.345 283.192 472.381 282.996 472.381 282.796L472.597 283H471.805V281.776H473.029V282.64C473.029 282.96 472.977 283.26 472.873 283.54C472.769 283.828 472.581 284.104 472.309 284.368ZM480.268 283L477.316 274.54H478.36L480.94 282.16H480.52L483.232 274.54H484.024L486.592 282.16H486.208L488.86 274.54H489.844L486.868 283H485.98L483.484 275.668H483.736L481.132 283H480.268ZM492.973 283.108C492.397 283.108 491.893 282.984 491.461 282.736C491.037 282.48 490.709 282.12 490.477 281.656C490.245 281.184 490.129 280.628 490.129 279.988C490.129 279.34 490.245 278.784 490.477 278.32C490.709 277.856 491.037 277.5 491.461 277.252C491.893 276.996 492.397 276.868 492.973 276.868C493.557 276.868 494.061 276.996 494.485 277.252C494.917 277.5 495.249 277.856 495.481 278.32C495.721 278.784 495.841 279.34 495.841 279.988C495.841 280.628 495.721 281.184 495.481 281.656C495.249 282.12 494.917 282.48 494.485 282.736C494.061 282.984 493.557 283.108 492.973 283.108ZM492.973 282.316C493.549 282.316 494.005 282.12 494.341 281.728C494.677 281.328 494.845 280.748 494.845 279.988C494.845 279.22 494.673 278.64 494.329 278.248C493.993 277.848 493.541 277.648 492.973 277.648C492.405 277.648 491.953 277.848 491.617 278.248C491.281 278.64 491.113 279.22 491.113 279.988C491.113 280.748 491.281 281.328 491.617 281.728C491.953 282.12 492.405 282.316 492.973 282.316ZM497.332 283V278.428C497.332 278.188 497.324 277.944 497.308 277.696C497.3 277.448 497.284 277.208 497.26 276.976H498.196L498.316 278.44L498.148 278.452C498.228 278.092 498.368 277.796 498.568 277.564C498.768 277.332 499.004 277.16 499.276 277.048C499.548 276.928 499.832 276.868 500.128 276.868C500.248 276.868 500.352 276.872 500.44 276.88C500.536 276.888 500.624 276.908 500.704 276.94L500.692 277.804C500.572 277.764 500.46 277.74 500.356 277.732C500.26 277.716 500.148 277.708 500.02 277.708C499.668 277.708 499.36 277.792 499.096 277.96C498.84 278.128 498.644 278.344 498.508 278.608C498.38 278.872 498.316 279.152 498.316 279.448V283H497.332ZM503.925 283.108C503.397 283.108 502.933 282.984 502.533 282.736C502.133 282.48 501.821 282.12 501.597 281.656C501.381 281.192 501.273 280.636 501.273 279.988C501.273 279.332 501.381 278.772 501.597 278.308C501.821 277.844 502.133 277.488 502.533 277.24C502.933 276.992 503.397 276.868 503.925 276.868C504.469 276.868 504.937 277.004 505.329 277.276C505.729 277.548 505.997 277.916 506.133 278.38H505.989V274.168H506.961V283H506.001V281.56H506.133C506.005 282.04 505.741 282.42 505.341 282.7C504.941 282.972 504.469 283.108 503.925 283.108ZM504.129 282.316C504.697 282.316 505.153 282.12 505.497 281.728C505.841 281.328 506.013 280.748 506.013 279.988C506.013 279.22 505.841 278.64 505.497 278.248C505.153 277.848 504.697 277.648 504.129 277.648C503.561 277.648 503.105 277.848 502.761 278.248C502.425 278.64 502.257 279.22 502.257 279.988C502.257 280.748 502.425 281.328 502.761 281.728C503.105 282.12 503.561 282.316 504.129 282.316ZM509.152 284.368L508.696 284.02C508.912 283.796 509.052 283.584 509.116 283.384C509.188 283.192 509.224 282.996 509.224 282.796L509.44 283H508.648V281.776H509.872V282.64C509.872 282.96 509.82 283.26 509.716 283.54C509.612 283.828 509.424 284.104 509.152 284.368ZM514.808 283V274.54H518.252C519.14 274.54 519.824 274.756 520.304 275.188C520.784 275.612 521.024 276.204 521.024 276.964C521.024 277.708 520.784 278.3 520.304 278.74C519.824 279.172 519.14 279.388 518.252 279.388H515.804V283H514.808ZM515.804 278.56H518.156C518.772 278.56 519.236 278.42 519.548 278.14C519.868 277.86 520.028 277.468 520.028 276.964C520.028 276.452 519.868 276.056 519.548 275.776C519.236 275.496 518.772 275.356 518.156 275.356H515.804V278.56ZM522.624 283V274.54H526.068C526.956 274.54 527.64 274.756 528.12 275.188C528.6 275.612 528.84 276.204 528.84 276.964C528.84 277.708 528.6 278.3 528.12 278.74C527.64 279.172 526.956 279.388 526.068 279.388H523.62V283H522.624ZM523.62 278.56H525.972C526.588 278.56 527.052 278.42 527.364 278.14C527.684 277.86 527.844 277.468 527.844 276.964C527.844 276.452 527.684 276.056 527.364 275.776C527.052 275.496 526.588 275.356 525.972 275.356H523.62V278.56ZM532.27 283V275.38H529.282V274.54H536.242V275.38H533.266V283H532.27Z" fill="#676767"/>
<path d="M350.985 163.647C350.837 164.121 351.122 164.609 351.602 164.746L351.692 164.772L351.695 164.768C352.147 164.849 352.603 164.593 352.739 164.154C353.964 160.22 357.827 157.465 362.137 157.465C362.636 157.465 363.053 157.076 363.053 156.583C363.053 156.09 362.636 155.702 362.137 155.702C356.857 155.702 352.413 159.062 350.985 163.647ZM350.985 163.647L351.128 163.692M350.985 163.647C350.985 163.647 350.985 163.647 350.985 163.648L351.128 163.692M351.128 163.692C351.007 164.079 351.238 164.487 351.643 164.602L351.644 164.602C352.05 164.718 352.476 164.496 352.596 164.109C353.841 160.109 357.765 157.315 362.137 157.315C362.56 157.315 362.903 156.987 362.903 156.583C362.903 156.179 362.56 155.852 362.137 155.852C356.92 155.852 352.536 159.171 351.128 163.692Z" fill="#DB0D4B" stroke="#F9FFF9" stroke-width="0.3"/>
<path d="M372.856 192.438H368.262C367.839 192.438 367.497 192.111 367.497 191.707C367.497 191.303 367.839 190.975 368.262 190.975H372.856C379.188 190.975 384.341 186.051 384.341 179.999C384.341 173.947 379.188 169.023 372.856 169.023H372.745C372.523 169.023 372.312 168.931 372.167 168.771C372.021 168.61 371.956 168.397 371.988 168.187C372.056 167.732 372.09 167.274 372.09 166.828C372.09 161.583 367.625 157.315 362.137 157.315C360.002 157.315 357.966 157.953 356.249 159.16C355.871 159.425 355.335 159.307 355.117 158.91C350.254 150.06 337.551 148.871 330.965 156.571C328.191 159.814 327.101 164.034 327.974 168.146C328.071 168.6 327.707 169.024 327.224 169.024H326.917C320.585 169.024 315.433 173.948 315.433 180C315.433 186.051 320.585 190.976 326.917 190.976H331.511C331.934 190.976 332.277 191.303 332.277 191.707C332.277 192.111 331.934 192.439 331.511 192.439H326.917C319.74 192.439 313.901 186.858 313.901 180C313.901 173.333 319.417 167.874 326.316 167.573C325.668 163.307 326.907 159.003 329.78 155.644C336.831 147.4 350.343 148.324 356.055 157.517C357.878 156.425 359.963 155.852 362.137 155.852C368.786 155.852 374.054 161.261 373.593 167.58C380.429 167.946 385.872 173.376 385.872 179.999C385.872 186.858 380.032 192.438 372.856 192.438L372.856 192.438Z" fill="#B70D52"/>
<path d="M330.493 191.293C330.493 201.47 339.153 209.737 349.784 209.737C360.415 209.737 369.075 201.47 369.075 191.293C369.075 181.117 360.415 172.85 349.784 172.85C339.153 172.85 330.493 181.117 330.493 191.293ZM332.324 191.293C332.324 182.103 340.15 174.614 349.784 174.614C359.417 174.614 367.243 182.103 367.243 191.293C367.243 200.484 359.417 207.973 349.784 207.973C340.15 207.973 332.324 200.484 332.324 191.293Z" fill="#DB0D4B" stroke="#F9FFF9" stroke-width="0.3"/>
<path d="M349.423 198.658C349.423 199.043 349.748 199.343 350.134 199.343C350.52 199.343 350.844 199.043 350.844 198.658V184.729C350.844 184.344 350.52 184.043 350.134 184.043C349.748 184.043 349.423 184.344 349.423 184.729V198.658Z" fill="#DB0D4B" stroke="#DB0D4B" stroke-width="0.3"/>
<path d="M354.118 189.504C354.257 189.637 354.439 189.702 354.618 189.702L346.15 189.504L350.134 185.696L354.118 189.504ZM350.634 184.244C350.357 183.979 349.911 183.979 349.634 184.244L354.618 189.702C354.798 189.702 354.979 189.637 355.119 189.504C355.399 189.236 355.399 188.798 355.118 188.529L350.634 184.244Z" fill="#DB0D4B" stroke="#DB0D4B" stroke-width="0.3"/>
</svg>
