<svg width="15" height="15" viewBox="0 0 15 15" fill="none" xmlns="http://www.w3.org/2000/svg">
<path d="M14.0374 6.72913L3.28489 6.72913L7.98249 2.03154C8.35791 1.65612 8.35791 1.04004 7.98249 0.664618C7.60707 0.289195 7.00061 0.289195 6.62519 0.664618L0.281512 7.00829C0.192274 7.09735 0.121475 7.20313 0.0731694 7.31958C0.0248639 7.43603 6.50349e-07 7.56087 6.39328e-07 7.68694C6.28306e-07 7.81301 0.0248639 7.93785 0.0731694 8.0543C0.121475 8.17075 0.192274 8.27653 0.281512 8.36559L6.61556 14.7189C6.70469 14.808 6.81049 14.8787 6.92693 14.9269C7.04337 14.9752 7.16818 15 7.29421 15C7.42025 15 7.54505 14.9752 7.66149 14.9269C7.77794 14.8787 7.88374 14.808 7.97286 14.7189C8.06198 14.6298 8.13268 14.524 8.18091 14.4075C8.22914 14.2911 8.25397 14.1663 8.25397 14.0402C8.25397 13.9142 8.22914 13.7894 8.18091 13.673C8.13268 13.5565 8.06198 13.4507 7.97286 13.3616L3.28489 8.65438L14.0374 8.65438C14.5668 8.65438 15 8.2212 15 7.69176C15 7.16231 14.5668 6.72913 14.0374 6.72913Z" fill="#92929D"/>
</svg>
