<svg width="18" height="20" viewBox="0 0 18 20" fill="none" xmlns="http://www.w3.org/2000/svg">
<path d="M17 3C17.2652 3 17.5196 3.10536 17.7071 3.29289C17.8946 3.48043 18 3.73478 18 4C18 4.26522 17.8946 4.51957 17.7071 4.70711C17.5196 4.89464 17.2652 5 17 5H16L15.997 5.071L15.064 18.142C15.0281 18.6466 14.8023 19.1188 14.4321 19.4636C14.0619 19.8083 13.5749 20 13.069 20H4.93C4.42414 20 3.93707 19.8083 3.56688 19.4636C3.1967 19.1188 2.97092 18.6466 2.935 18.142L2.002 5.072C2.00048 5.04803 1.99982 5.02402 2 5H1C0.734784 5 0.48043 4.89464 0.292893 4.70711C0.105357 4.51957 0 4.26522 0 4C0 3.73478 0.105357 3.48043 0.292893 3.29289C0.48043 3.10536 0.734784 3 1 3H17ZM13.997 5H4.003L4.931 18H13.069L13.997 5ZM11 0C11.2652 0 11.5196 0.105357 11.7071 0.292893C11.8946 0.48043 12 0.734784 12 1C12 1.26522 11.8946 1.51957 11.7071 1.70711C11.5196 1.89464 11.2652 2 11 2H7C6.73478 2 6.48043 1.89464 6.29289 1.70711C6.10536 1.51957 6 1.26522 6 1C6 0.734784 6.10536 0.48043 6.29289 0.292893C6.48043 0.105357 6.73478 0 7 0H11Z" fill="white"/>
</svg>
