<svg width="23" height="20" viewBox="0 0 23 20" fill="none" xmlns="http://www.w3.org/2000/svg">
<path d="M17.7925 14.05C18.7207 14.05 19.611 13.6813 20.2673 13.0249C20.9237 12.3685 21.2925 11.4783 21.2925 10.55C21.2925 9.62174 20.9237 8.7315 20.2673 8.07513C19.611 7.41875 18.7207 7.05 17.7925 7.05H16.7925C16.9384 6.39996 16.9406 5.73041 16.799 5.0796C16.6574 4.42878 16.3748 3.80944 15.9672 3.25693C15.5597 2.70442 15.0352 2.22957 14.4238 1.85948C13.8123 1.48939 13.1259 1.23132 12.4036 1.1C11.6813 0.968678 10.9374 0.966678 10.2142 1.09411C9.49111 1.22155 8.80296 1.47592 8.18906 1.84271C6.94923 2.58348 6.08715 3.73718 5.79247 5.05C4.72642 5.0073 3.67801 5.3204 2.82674 5.9357C1.97547 6.551 1.37429 7.43022 1.12614 8.42282C0.877991 9.41543 0.9983 10.4597 1.46647 11.3768C1.93464 12.2939 2.72155 13.0268 3.69247 13.45M10.7925 9.05V18.05M7.79247 15.05L10.7925 18.05L13.7925 15.05" stroke="white" stroke-width="2" stroke-linecap="round" stroke-linejoin="round"/>
</svg>
