<svg width="18" height="18" viewBox="0 0 18 18" fill="none" xmlns="http://www.w3.org/2000/svg">
<path d="M9 11C8.45 11 7.97933 10.804 7.588 10.412C7.196 10.0207 7 9.55 7 9C7 8.45 7.196 7.979 7.588 7.587C7.97933 7.19567 8.45 7 9 7C9.55 7 10.021 7.19567 10.413 7.587C10.8043 7.979 11 8.45 11 9C11 9.55 10.8043 10.0207 10.413 10.412C10.021 10.804 9.55 11 9 11ZM9 18C6.91667 18 5.075 17.375 3.475 16.125C1.875 14.875 0.816667 13.2667 0.3 11.3C0.216667 10.95 0.271 10.6457 0.463 10.387C0.654333 10.129 0.916667 10 1.25 10C1.48333 10 1.696 10.0833 1.888 10.25C2.07933 10.4167 2.20833 10.6167 2.275 10.85C2.65833 12.3667 3.475 13.604 4.725 14.562C5.975 15.5207 7.4 16 9 16C10.95 16 12.604 15.3207 13.962 13.962C15.3207 12.604 16 10.95 16 9C16 7.05 15.3207 5.39567 13.962 4.037C12.604 2.679 10.95 2 9 2C7.85 2 6.775 2.26667 5.775 2.8C4.775 3.33333 3.93333 4.06667 3.25 5H5C5.28333 5 5.521 5.09567 5.713 5.287C5.90433 5.479 6 5.71667 6 6C6 6.28333 5.90433 6.52067 5.713 6.712C5.521 6.904 5.28333 7 5 7H1C0.716667 7 0.479333 6.904 0.288 6.712C0.0960001 6.52067 0 6.28333 0 6V2C0 1.71667 0.0960001 1.479 0.288 1.287C0.479333 1.09567 0.716667 1 1 1C1.28333 1 1.521 1.09567 1.713 1.287C1.90433 1.479 2 1.71667 2 2V3.35C2.85 2.28333 3.88767 1.45833 5.113 0.875C6.33767 0.291667 7.63333 0 9 0C10.25 0 11.421 0.237333 12.513 0.712C13.6043 1.18733 14.5543 1.829 15.363 2.637C16.171 3.44567 16.8127 4.39567 17.288 5.487C17.7627 6.579 18 7.75 18 9C18 10.25 17.7627 11.4207 17.288 12.512C16.8127 13.604 16.171 14.554 15.363 15.362C14.5543 16.1707 13.6043 16.8127 12.513 17.288C11.421 17.7627 10.25 18 9 18Z" fill="white"/>
</svg>
